<svg width="372" height="283" viewBox="0 0 372 283" fill="none" xmlns="http://www.w3.org/2000/svg">
<path d="M10.5771 136.57C10.3871 136.57 10.1971 136.57 10.0071 136.55C5.77708 136.29 2.34707 133.02 0.847075 127.81C-1.97292 118.03 1.50707 97.93 22.6671 82.68C29.2971 77.9 34.4671 75.32 38.1471 78.26C43.2471 82.35 39.6171 91.62 28.3671 117.81C21.7671 133.17 15.1471 136.57 10.5771 136.57ZM32.6571 85.32C31.5171 85.89 29.7471 86.94 27.1071 88.84C9.25707 101.71 6.00707 118.28 8.14707 125.7C8.69707 127.6 9.63707 128.91 10.4771 128.96C12.1171 129.02 16.4671 126.23 21.3771 114.8C25.7971 104.51 31.6271 90.93 32.6571 85.31V85.32Z" fill="white"/>
<path d="M35.5871 74.26C34.2671 74.26 33.0771 73.93 32.0371 73.28C29.7371 71.84 28.7471 69.11 29.3871 65.98C30.7171 59.53 38.7971 51.66 51.1471 49.77C53.9471 49.34 59.1471 48.55 60.7971 52.42C62.6771 56.81 58.2671 60.21 46.4771 69.3C42.1971 72.6 38.5571 74.26 35.5871 74.26ZM48.3771 58.17C42.0571 60.09 38.5371 63.79 37.2971 66.15C38.3471 65.68 39.8571 64.82 41.8371 63.29C43.8071 61.77 46.2271 59.91 48.3771 58.17Z" fill="white"/>
<path d="M52.7471 229.09C51.3071 229.09 50.0571 228.29 49.4071 227.11C49.1371 226.61 48.9771 226.03 48.9571 225.43C48.9571 225.42 48.9571 225.4 48.9571 225.39C48.9571 225.36 48.9571 225.34 48.9571 225.31V225.18C48.9571 223.08 50.6571 221.38 52.7571 221.38C54.8571 221.38 56.5071 223.03 56.5571 225.09C56.5571 225.16 56.5571 225.23 56.5571 225.3C56.5571 225.7 56.4971 226.09 56.3771 226.47C55.8871 228 54.4571 229.11 52.7571 229.11L52.7471 229.09Z" fill="white"/>
<path d="M201.937 282.59C186.777 282.59 172.017 280.57 157.917 276.54C151.047 277.83 143.967 278.92 136.757 279.79C136.717 279.79 136.687 279.79 136.647 279.8C101.747 283.03 75.0171 275.98 61.3771 259.95C52.7271 249.78 48.4471 236.78 48.9971 222.34C48.9971 222.3 48.9971 222.26 48.9971 222.22C50.5971 166.68 81.3371 133.84 106.847 116.07C139.157 93.56 176.347 85.57 198.387 85.57C207.257 85.57 222.737 86.87 226.797 95.54C234.037 111.04 222.747 121.72 213.687 130.3C206.997 136.63 200.687 142.61 200.977 149.56C201.217 155.25 206.557 159.29 219.257 166.75C225.847 170.62 229.457 178.55 228.037 186.02C227.197 190.46 223.177 201.11 204.217 204.08C198.247 205.01 189.597 205.58 183.497 199.77C176.007 192.64 174.077 177.78 177.037 150.08C177.087 149.66 177.127 149.28 177.167 148.89C177.167 148.83 177.167 148.78 177.177 148.73C177.217 148.35 177.257 147.97 177.287 147.58C179.077 126.7 173.207 121.2 163.177 119.09C161.297 118.7 159.327 118.63 157.307 118.9C147.337 120.22 137.797 129.48 133.567 141.94C133.527 142.05 133.487 142.16 133.437 142.26C129.287 151.57 129.477 162.75 130.287 173.45C131.677 191.66 142.697 209.67 161.317 224.17C175.667 235.34 193.377 240.59 211.197 238.95C236.987 236.57 259.517 220.38 270.027 196.7C278.777 172.85 265.377 161.54 254.607 152.44C248.877 147.6 244.347 143.77 244.177 138.61C244.087 135.91 245.277 133.36 247.707 131.01C264.797 114.55 271.397 97.83 266.277 83.95C260.827 69.17 242.497 59.09 218.437 57.64C210.207 57.14 198.127 58.12 185.267 60.32C180.917 61.22 176.447 62.36 171.957 63.69C135.777 74.12 100.787 94.31 67.9171 123.73C54.8771 135.4 46.6971 134.04 42.9871 132.19C38.0771 129.75 35.6171 124.13 36.2271 116.79C38.6271 88.11 56.3871 60.32 86.2571 38.56C114.837 17.77 151.397 4.38 189.207 0.88C195.497 0.3 201.887 0 208.207 0C227.237 0 245.867 2.65 263.577 7.88C266.127 8.63 268.667 9.45 271.137 10.29C278.547 12.83 285.807 15.85 292.707 19.29C293.857 19.86 294.987 20.44 296.117 21.03C298.467 22.27 300.707 23.51 302.787 24.74C308.227 27.92 313.477 31.42 318.397 35.14C320.367 36.62 322.317 38.17 324.197 39.74C351.587 62.55 368.327 93.13 371.357 125.85C371.477 127.13 371.577 128.47 371.657 129.96L371.707 131.05C371.757 132.09 371.797 133.13 371.817 134.17L371.837 135.22C371.837 135.49 371.837 135.76 371.837 136.02V136.38C371.837 137.08 371.837 137.81 371.837 138.54V139.26C371.797 140.64 371.747 141.99 371.677 143.28C371.677 143.29 371.677 143.31 371.677 143.32C371.197 152.05 369.727 160.82 367.317 169.4C367.297 169.48 367.277 169.55 367.257 169.63C367.227 169.74 367.197 169.84 367.157 169.95L367.127 170.05C367.127 170.06 367.127 170.07 367.117 170.09C366.687 171.57 366.287 172.9 365.877 174.16L365.847 174.25C365.437 175.52 364.967 176.86 364.417 178.37L364.287 178.75C364.287 178.75 364.267 178.81 364.257 178.84C364.257 178.84 364.257 178.84 364.257 178.85C364.257 178.85 364.237 178.89 364.237 178.91L364.127 179.19C363.647 180.47 363.147 181.74 362.637 183.01L362.527 183.28C362.527 183.28 362.507 183.32 362.497 183.35C362.497 183.35 362.477 183.4 362.467 183.43L362.257 183.93C361.727 185.2 361.187 186.46 360.617 187.71C360.597 187.75 360.577 187.79 360.557 187.83C360.557 187.83 360.557 187.84 360.557 187.85C341.327 229.92 299.227 263.01 247.917 276.38C238.257 279.06 228.187 280.9 218.027 281.84L215.237 282.1C215.047 282.12 214.867 282.12 214.677 282.11C210.407 282.42 206.157 282.58 201.947 282.58L201.937 282.59ZM168.627 271.42C183.327 274.67 198.707 275.71 214.477 274.52C214.607 274.52 214.727 274.51 214.857 274.52L217.317 274.3C227.017 273.41 236.647 271.65 245.927 269.07C295.137 256.25 335.387 224.7 353.657 184.64C353.677 184.6 353.697 184.56 353.717 184.52C353.717 184.52 353.717 184.52 353.717 184.5C354.237 183.35 354.737 182.19 355.227 181.02L355.287 180.88C355.287 180.88 355.317 180.81 355.327 180.78L355.547 180.26C355.547 180.26 355.567 180.21 355.577 180.18V180.14C356.077 178.96 356.547 177.76 356.997 176.56V176.53C356.997 176.53 357.027 176.48 357.037 176.45L357.237 175.9C357.237 175.9 357.257 175.86 357.267 175.83L357.287 175.78C357.807 174.36 358.247 173.09 358.627 171.92C359.037 170.64 359.427 169.38 359.827 167.98C362.187 159.74 363.627 151.33 364.087 142.96C364.087 142.95 364.087 142.94 364.087 142.93C364.157 141.67 364.197 140.41 364.227 139.14V138.45C364.247 137.79 364.247 137.1 364.237 136.43V136.02V135.05C364.167 134.81 364.117 134.56 364.097 134.3V134.28L364.077 134.01C364.077 134.01 364.077 133.99 364.077 133.98C364.037 133.54 363.997 133.1 363.947 132.65C363.947 132.57 363.937 132.5 363.927 132.42C363.917 132.34 363.897 132.26 363.887 132.17C363.777 131.17 363.647 130.19 363.497 129.25C363.487 129.18 363.477 129.11 363.467 129.04C363.467 128.99 363.457 128.94 363.447 128.89C363.447 128.86 363.437 128.83 363.427 128.8C363.407 128.71 363.397 128.62 363.377 128.52C363.257 127.84 363.127 127.16 362.987 126.49L362.897 126.05C362.877 125.95 362.857 125.84 362.837 125.74C362.797 125.57 362.767 125.4 362.727 125.23C362.517 124.32 362.287 123.4 362.047 122.51C362.027 122.44 362.007 122.38 361.997 122.31C361.957 122.2 361.917 122.09 361.887 121.98C361.777 121.6 361.667 121.23 361.547 120.85C361.347 120.2 361.137 119.55 360.907 118.9C360.857 118.76 360.807 118.61 360.757 118.47V118.45C360.507 117.75 360.247 117.06 359.977 116.37C359.907 116.19 359.847 116.01 359.807 115.83C359.717 115.67 359.627 115.51 359.557 115.34C359.257 114.63 358.947 113.92 358.627 113.22C358.607 113.18 358.597 113.15 358.577 113.11C358.517 112.98 358.467 112.85 358.417 112.72C358.357 112.63 358.307 112.53 358.267 112.43C358.147 112.17 358.017 111.91 357.887 111.65C357.547 110.95 357.187 110.26 356.817 109.58C356.817 109.56 356.797 109.54 356.787 109.53C356.767 109.5 356.747 109.47 356.727 109.43L356.547 109.11C356.307 108.68 356.067 108.25 355.827 107.83C355.577 107.4 355.307 106.96 355.027 106.5C354.967 106.39 354.907 106.28 354.847 106.17C354.767 106.07 354.697 105.97 354.637 105.87C354.397 105.49 354.157 105.11 353.907 104.73C353.807 104.58 353.707 104.43 353.617 104.28C353.537 104.16 353.457 104.04 353.377 103.92L353.247 103.73C353.247 103.73 353.237 103.71 353.227 103.71C353.227 103.71 353.217 103.69 353.207 103.69C353.137 103.59 353.077 103.49 353.027 103.38C352.947 103.29 352.867 103.19 352.797 103.09C352.597 102.81 352.407 102.53 352.207 102.25C351.887 101.8 351.547 101.35 351.217 100.9C351.217 100.9 351.217 100.89 351.207 100.88C351.147 100.8 351.087 100.71 351.027 100.62C350.987 100.57 350.947 100.52 350.907 100.47C350.237 99.6 349.537 98.72 348.817 97.86C348.777 97.81 348.737 97.76 348.697 97.71C348.657 97.67 348.627 97.63 348.587 97.59C348.567 97.57 348.487 97.48 348.477 97.46C347.807 96.67 347.187 95.97 346.557 95.27C346.457 95.16 346.357 95.04 346.267 94.91C346.147 94.81 346.037 94.7 345.927 94.59C345.327 93.95 344.707 93.31 344.087 92.68C343.987 92.58 343.887 92.47 343.797 92.36C343.697 92.28 343.607 92.19 343.507 92.1C342.327 90.93 341.107 89.8 339.877 88.71C339.337 88.23 338.787 87.76 338.237 87.3C338.217 87.28 338.197 87.26 338.177 87.25C338.157 87.24 338.137 87.22 338.117 87.21L337.857 87C337.027 86.31 336.207 85.65 335.367 85C335.167 84.84 334.997 84.71 334.827 84.58C333.937 83.89 333.057 83.24 332.177 82.61L331.847 82.37C331.107 81.84 330.347 81.31 329.587 80.8C328.267 79.91 326.877 79.01 325.457 78.14C325.407 78.11 325.347 78.07 325.297 78.04C325.227 78 325.157 77.96 325.087 77.92C325.077 77.92 325.067 77.91 325.057 77.9C324.057 77.29 323.037 76.69 322.007 76.1C321.867 76.02 321.737 75.93 321.607 75.84L321.587 75.87C321.527 75.83 321.457 75.8 321.397 75.76C320.577 75.3 319.767 74.85 318.947 74.42C318.927 74.42 318.907 74.4 318.897 74.39C318.887 74.39 318.867 74.38 318.857 74.37C318.807 74.34 318.747 74.31 318.697 74.28C317.867 73.84 317.027 73.4 316.187 72.98C316.177 72.98 316.167 72.97 316.147 72.96C316.117 72.95 316.087 72.93 316.067 72.92C315.917 72.84 315.757 72.76 315.597 72.69C314.887 72.34 314.167 71.99 313.447 71.64C313.397 71.62 313.357 71.6 313.317 71.57C313.267 71.55 313.217 71.53 313.167 71.5C312.467 71.17 311.777 70.84 311.067 70.52C310.917 70.45 310.777 70.39 310.627 70.32C310.567 70.29 310.497 70.26 310.437 70.23C310.367 70.2 310.297 70.18 310.237 70.15C310.237 70.15 310.217 70.15 310.207 70.14C309.027 69.61 307.827 69.1 306.617 68.6C306.577 68.58 306.537 68.57 306.507 68.55C306.467 68.54 306.437 68.52 306.407 68.51C305.887 68.3 305.367 68.08 304.837 67.87C304.407 67.7 303.967 67.52 303.527 67.35C303.507 67.35 303.487 67.34 303.467 67.33C303.437 67.32 303.407 67.31 303.377 67.29C303.347 67.28 303.307 67.27 303.277 67.25C302.317 66.88 301.337 66.51 300.367 66.15C300.347 66.15 300.317 66.13 300.297 66.12C300.267 66.12 300.247 66.1 300.217 66.09C299.207 65.72 298.197 65.36 297.177 65.02L297.117 65C296.877 64.92 296.637 64.84 296.397 64.76C295.597 64.49 294.797 64.23 293.987 63.97C293.977 63.97 293.967 63.97 293.947 63.96C288.217 62.13 282.237 60.56 276.177 59.28C267.747 57.5 258.967 56.25 250.097 55.56C250.087 55.56 250.067 55.56 250.057 55.56C249.987 55.56 249.927 55.55 249.857 55.54C249.827 55.54 249.807 55.54 249.777 55.54C249.747 55.54 249.717 55.54 249.687 55.54C249.617 55.54 249.547 55.54 249.487 55.52C249.167 55.5 248.847 55.47 248.517 55.45C247.007 55.34 245.497 55.25 243.977 55.18C258.517 60.54 269.127 69.74 273.437 81.42C279.667 98.31 272.407 117.9 253.017 136.58C252.237 137.33 251.797 138.02 251.807 138.46C251.867 140.24 256.127 143.84 259.547 146.73C270.107 155.65 287.777 170.57 277.197 199.42C277.197 199.43 277.197 199.45 277.187 199.46C277.167 199.52 277.147 199.59 277.127 199.65C277.127 199.68 277.107 199.72 277.097 199.75C277.097 199.78 277.077 199.82 277.067 199.84C277.047 199.89 277.027 199.95 277.007 200C276.987 200.06 276.967 200.12 276.947 200.18C276.947 200.18 276.937 200.22 276.927 200.24C276.927 200.26 276.907 200.29 276.907 200.3C276.877 200.39 276.837 200.48 276.807 200.56C276.777 200.65 276.757 200.74 276.717 200.83L276.657 201.01C276.547 201.29 276.417 201.55 276.257 201.79C276.207 202.07 276.127 202.35 276.017 202.63L275.907 202.88C275.847 203.02 275.777 203.16 275.697 203.29C275.657 203.43 275.597 203.58 275.537 203.72L275.437 203.68C275.437 203.68 275.437 203.69 275.427 203.7L275.537 203.75L275.457 203.92C275.367 204.11 275.267 204.29 275.157 204.45C275.107 204.63 275.037 204.81 274.957 204.99C274.957 204.99 274.957 204.99 274.957 205C274.957 205 274.957 205 274.957 205.01V205.03C274.957 205.03 274.907 205.13 274.907 205.14L274.867 205.22C274.777 205.4 274.677 205.58 274.567 205.74C274.507 205.93 274.437 206.11 274.347 206.3V206.32L274.167 206.23L274.337 206.32L274.297 206.4L274.207 206.58C273.947 207.1 273.577 207.53 273.157 207.86C273.117 208.4 272.967 208.94 272.677 209.44L272.507 209.74C272.357 209.99 272.197 210.22 272.007 210.43C271.917 210.7 271.797 210.97 271.647 211.22L271.307 211.02C271.307 211.02 271.287 211.03 271.277 211.04L271.627 211.25L271.267 211.04C271.267 211.04 271.167 211.1 271.117 211.13C271.097 211.78 270.907 212.44 270.527 213.03L270.427 213.19C270.427 213.19 270.427 213.19 270.427 213.2L270.397 213.25C270.227 213.52 270.017 213.76 269.797 213.98C269.697 214.27 269.557 214.55 269.387 214.82L268.987 214.57L269.387 214.83L269.197 215.11C268.717 215.83 268.027 216.34 267.257 216.6C267.257 217.4 267.027 218.21 266.517 218.9L266.257 219.24C266.007 219.57 265.707 219.85 265.377 220.08C265.247 220.46 265.047 220.83 264.777 221.17C264.757 221.19 264.737 221.22 264.717 221.24C264.427 221.6 264.077 221.9 263.707 222.12C263.557 222.54 263.337 222.95 263.037 223.31L262.897 223.48C262.597 223.83 262.257 224.12 261.877 224.33C261.717 224.74 261.487 225.12 261.177 225.47L260.937 225.74C260.147 226.63 259.027 227.04 257.917 227.01C257.937 227.15 257.937 227.3 257.937 227.44C257.937 228.4 257.567 229.37 256.837 230.11L256.507 230.44C255.547 231.4 254.197 231.74 252.967 231.46C253.187 232.7 252.787 234.03 251.777 234.94L251.517 235.17C251.097 235.55 250.607 235.82 250.097 235.98C249.877 236.46 249.547 236.9 249.117 237.26L248.807 237.52C247.527 238.61 245.737 238.7 244.377 237.88C244.877 239.38 244.397 241.1 243.067 242.11L242.627 242.44C240.947 243.7 238.567 243.35 237.307 241.68C236.967 241.23 236.747 240.72 236.637 240.2C236.387 240.31 236.147 240.42 235.897 240.52C236.417 240.81 236.877 241.22 237.217 241.75C237.647 242.4 237.847 243.12 237.847 243.84C237.847 245.07 237.247 246.28 236.147 247.01L235.757 247.26C235.187 247.64 234.547 247.84 233.907 247.88C233.607 248.45 233.147 248.95 232.557 249.32L232.157 249.57C230.377 250.68 228.037 250.14 226.927 248.36C226.537 247.73 226.347 247.04 226.347 246.35C226.347 245.31 226.777 244.28 227.577 243.55C222.547 245.07 217.327 246.1 211.977 246.6C192.227 248.43 172.607 242.62 156.727 230.25C136.397 214.42 124.337 194.49 122.787 174.12C121.897 162.49 121.737 150.24 126.497 139.42C128.427 133.8 131.307 128.72 134.817 124.47C125.267 128.2 115.587 133.63 106.867 140.21C106.717 140.32 106.567 140.42 106.407 140.51C106.287 140.64 106.147 140.75 106.007 140.87C105.077 141.58 104.157 142.3 103.247 143.04C103.227 143.06 103.207 143.08 103.177 143.09C101.547 144.42 99.1571 144.18 97.8371 142.55C96.5071 140.93 96.7571 138.53 98.3771 137.21C99.2971 136.46 100.227 135.73 101.167 135L101.327 134.88C101.347 134.86 101.367 134.85 101.387 134.84C101.537 134.73 101.687 134.64 101.837 134.56C101.977 134.42 102.127 134.28 102.297 134.15L103.557 133.2C115.617 124.25 128.557 117.73 140.937 114.38C140.987 114.36 141.107 114.33 141.217 114.3C141.217 114.3 141.277 114.29 141.307 114.28C141.807 114.14 142.317 114.1 142.807 114.16C143.197 113.87 143.647 113.65 144.147 113.52L144.477 113.44C144.717 113.38 144.957 113.32 145.187 113.26C145.717 113.14 146.237 113.13 146.737 113.22C147.147 112.93 147.627 112.73 148.157 112.62L148.487 112.55C148.667 112.51 148.847 112.47 149.027 112.44C149.027 112.44 149.037 112.44 149.047 112.44C149.067 112.44 149.087 112.44 149.107 112.43C149.647 112.33 150.177 112.35 150.677 112.47C151.107 112.2 151.597 112.02 152.127 111.94L152.407 111.9C152.597 111.87 152.797 111.84 152.987 111.81C153.417 111.75 153.837 111.77 154.237 111.85C154.947 111.7 155.657 111.57 156.377 111.48C159.247 111.1 162.087 111.19 164.807 111.76C185.047 116.02 186.197 133.54 184.927 148.33C184.897 148.73 184.857 149.13 184.817 149.52C184.817 149.55 184.817 149.57 184.817 149.6L184.797 149.77C184.747 150.2 184.707 150.62 184.657 151.03C182.047 175.41 183.367 189.19 188.807 194.37C191.637 197.07 196.057 197.78 203.107 196.68C213.097 195.11 219.497 190.75 220.637 184.7C221.467 180.32 219.347 175.67 215.467 173.4C202.437 165.74 193.867 159.97 193.447 149.98C193.007 139.57 200.897 132.1 208.527 124.88C218.717 115.24 224.567 108.67 219.977 98.85C218.677 96.07 211.517 93.26 198.457 93.26C161.247 93.26 85.1871 117.35 62.8771 185.66C63.0371 185.71 63.1871 185.77 63.3471 185.84C65.2471 186.73 66.0571 189 65.1671 190.89C64.8071 191.66 64.4571 192.43 64.1071 193.2C64.0671 193.3 64.0171 193.4 63.9571 193.5C63.9171 193.61 63.8771 193.73 63.8271 193.84C63.5871 194.4 63.3471 194.95 63.1171 195.5C63.0671 195.63 63.0071 195.75 62.9371 195.87C62.8971 196.01 62.8471 196.15 62.7971 196.28C62.5971 196.78 62.3971 197.28 62.1971 197.78C62.1471 197.92 62.0771 198.06 62.0071 198.18C61.9671 198.32 61.9271 198.47 61.8771 198.61C61.6971 199.08 61.5271 199.55 61.3571 200.03C61.3071 200.18 61.2471 200.32 61.1771 200.46C61.1471 200.61 61.1071 200.75 61.0571 200.89C60.8971 201.36 60.7471 201.81 60.5871 202.27C60.5371 202.42 60.4771 202.57 60.4071 202.71C60.3771 202.85 60.3471 202.99 60.2971 203.13C60.1471 203.61 59.9971 204.08 59.8571 204.56C59.8171 204.7 59.7671 204.84 59.7071 204.97C59.6871 205.09 59.6571 205.22 59.6171 205.34C59.4171 206.02 59.2271 206.7 59.0471 207.38C58.9971 207.57 58.9271 207.76 58.8571 207.93C58.8371 208.14 58.8071 208.34 58.7571 208.55L58.5271 209.48C58.4771 209.69 58.4071 209.89 58.3271 210.08C58.3271 210.27 58.2971 210.46 58.2571 210.66C58.2571 210.68 58.2571 210.71 58.2371 210.73L58.0571 211.54C58.0071 211.76 57.9471 211.97 57.8671 212.17C57.8671 212.39 57.8471 212.61 57.7971 212.84L57.6671 213.56C57.6271 213.79 57.5671 214.01 57.4871 214.23C57.4871 214.26 57.4871 214.28 57.4871 214.31C57.4871 214.51 57.4671 214.71 57.4371 214.91L57.3471 215.52C57.3071 215.77 57.2471 216.01 57.1671 216.23C57.1671 216.31 57.1671 216.38 57.1671 216.46C57.1671 216.62 57.1571 216.79 57.1371 216.96L57.0971 217.3C57.0571 217.65 56.9671 217.98 56.8371 218.29C56.7671 219.55 56.7071 220.81 56.6671 222.09C56.6671 222.18 56.6671 222.27 56.6671 222.36C56.0971 235.19 59.6571 246.2 67.2271 255.1C79.2071 269.18 103.607 275.29 135.957 272.31C145.647 271.13 155.117 269.56 164.097 267.62C166.137 267.18 168.147 268.47 168.597 270.5C168.667 270.83 168.697 271.16 168.687 271.48L168.627 271.42ZM208.197 7.6C202.117 7.6 195.957 7.88 189.897 8.45C153.427 11.82 118.217 24.71 90.7471 44.73C62.6971 65.17 46.0271 91 43.8171 117.45C43.4771 121.47 44.4371 124.45 46.3871 125.42C48.9671 126.7 54.6471 125.45 62.8671 118.1C96.5971 87.92 132.587 67.17 169.837 56.43C174.537 55.03 179.277 53.83 183.877 52.88C185.497 52.5 187.217 52.13 189.277 51.7C189.497 51.66 189.717 51.63 189.927 51.62C190.127 51.54 190.347 51.48 190.567 51.43C192.557 51.03 194.337 50.7 196.017 50.41C196.087 50.4 196.167 50.39 196.237 50.38C196.287 50.37 196.347 50.36 196.397 50.35C198.127 50.06 199.857 49.79 201.597 49.53C201.617 49.53 201.637 49.53 201.647 49.53C201.837 49.5 202.057 49.49 202.207 49.49C202.387 49.44 202.577 49.39 202.767 49.37C203.817 49.22 204.837 49.09 205.827 48.96C206.697 48.85 207.547 48.75 208.377 48.65C208.457 48.65 208.537 48.63 208.617 48.63C208.677 48.63 208.737 48.61 208.797 48.61C208.797 48.61 208.857 48.61 208.887 48.6C210.437 48.43 212.037 48.27 213.747 48.12C213.897 48.11 214.057 48.09 214.217 48.08C214.347 48.07 214.487 48.07 214.617 48.07C214.757 48.04 214.887 48.03 215.027 48.01C215.027 48.01 215.047 48.01 215.057 48.01C216.157 47.92 217.257 47.84 218.337 47.76C219.177 47.7 220.007 47.65 220.807 47.61C220.807 47.61 220.817 47.62 220.827 47.61C220.887 47.61 220.947 47.61 221.007 47.61C221.057 47.61 221.107 47.61 221.157 47.6C223.037 47.5 224.967 47.42 226.897 47.36C226.957 47.36 227.017 47.36 227.067 47.36C227.137 47.36 227.207 47.36 227.277 47.35C227.277 47.35 227.337 47.35 227.367 47.35C228.247 47.33 229.127 47.31 230.017 47.29C231.117 47.27 232.207 47.27 233.277 47.26C233.277 47.26 233.357 47.26 233.407 47.26C233.437 47.26 233.487 47.26 233.497 47.26C235.267 47.26 237.037 47.28 238.807 47.33C238.837 47.33 238.867 47.33 238.887 47.33C238.917 47.33 238.957 47.33 238.987 47.33C239.027 47.33 239.077 47.33 239.127 47.33C239.127 47.33 239.197 47.33 239.227 47.33C242.707 47.42 246.237 47.6 249.727 47.86C249.897 47.87 250.077 47.89 250.247 47.9C250.277 47.9 250.297 47.9 250.327 47.9H250.417C267.447 49.22 283.667 52.43 298.647 57.45C298.657 57.45 298.677 57.45 298.687 57.46C298.987 57.56 299.287 57.66 299.577 57.76C299.597 57.76 299.617 57.77 299.637 57.78C300.697 58.14 301.747 58.51 302.787 58.89C302.817 58.89 302.837 58.91 302.867 58.92L302.947 58.95C303.977 59.33 304.997 59.71 306.007 60.1C306.037 60.11 306.067 60.12 306.097 60.14C306.137 60.15 306.167 60.17 306.197 60.18C306.687 60.37 307.177 60.56 307.667 60.76C308.197 60.97 308.727 61.19 309.257 61.41C309.297 61.43 309.347 61.45 309.387 61.47C309.427 61.48 309.457 61.5 309.497 61.51C309.497 61.51 309.497 61.51 309.507 61.51C310.777 62.04 312.037 62.58 313.287 63.13C313.357 63.16 313.417 63.19 313.487 63.23C313.557 63.26 313.637 63.29 313.707 63.32C313.707 63.32 313.727 63.33 313.747 63.34C313.877 63.4 314.007 63.46 314.137 63.52C314.887 63.86 315.637 64.21 316.377 64.56C316.377 64.56 316.377 64.56 316.387 64.56C316.437 64.58 316.487 64.61 316.527 64.63C316.577 64.65 316.627 64.67 316.677 64.7C317.447 65.07 318.217 65.44 318.977 65.82C319.137 65.9 319.287 65.98 319.447 66.06C319.457 66.06 319.477 66.07 319.487 66.08C319.517 66.09 319.547 66.11 319.577 66.12C319.577 66.12 319.577 66.12 319.587 66.12C320.527 66.59 321.447 67.07 322.367 67.56C322.377 67.56 322.397 67.57 322.407 67.58C323.377 68.1 324.347 68.63 325.297 69.16L325.277 69.19C325.437 69.25 325.587 69.33 325.737 69.41C325.737 69.41 325.757 69.42 325.767 69.43C326.867 70.06 327.947 70.69 329.017 71.35C329.037 71.36 329.057 71.37 329.067 71.38C329.107 71.41 329.147 71.43 329.187 71.46C329.267 71.5 329.337 71.54 329.407 71.59C329.407 71.59 329.427 71.6 329.437 71.61C331.017 72.58 332.557 73.58 334.057 74.6C334.797 75.1 335.517 75.6 336.217 76.11L336.247 76.13C338.567 77.79 340.797 79.51 342.907 81.27C342.927 81.29 342.957 81.31 342.977 81.33C343.017 81.36 343.047 81.39 343.077 81.41C343.677 81.91 344.267 82.42 344.857 82.94C346.207 84.13 347.527 85.36 348.797 86.61C348.907 86.72 349.017 86.84 349.107 86.96C349.217 87.05 349.317 87.14 349.417 87.24C350.097 87.92 350.767 88.61 351.417 89.31C351.537 89.44 351.647 89.57 351.737 89.7C351.867 89.81 351.997 89.93 352.107 90.06C352.847 90.87 353.557 91.68 354.257 92.51C354.307 92.56 354.347 92.62 354.387 92.68C354.457 92.75 354.517 92.82 354.587 92.9C354.977 93.37 355.367 93.84 355.737 94.31C348.197 76.01 335.777 59.28 319.257 45.52C317.477 44.03 315.617 42.56 313.747 41.15C309.057 37.61 304.047 34.28 298.867 31.24C296.877 30.07 294.737 28.88 292.497 27.7C291.427 27.14 290.337 26.58 289.237 26.03C282.637 22.74 275.687 19.85 268.587 17.42C266.217 16.61 263.777 15.83 261.337 15.11C244.327 10.09 226.417 7.54 208.117 7.54L208.197 7.6ZM240.217 258.49C240.217 258.49 240.197 258.49 240.177 258.49C239.627 258.49 239.087 258.48 238.547 258.47H237.937C237.507 258.45 237.087 258.37 236.697 258.23C236.297 258.36 235.857 258.42 235.417 258.41C234.797 258.39 234.187 258.36 233.567 258.33L233.017 258.3C232.617 258.28 232.227 258.2 231.877 258.07C231.497 258.17 231.097 258.21 230.687 258.18C229.947 258.13 229.217 258.07 228.487 258.02L228.207 258C227.827 257.97 227.467 257.88 227.127 257.75C226.767 257.83 226.387 257.85 225.997 257.81C225.207 257.73 224.427 257.65 223.647 257.56L223.497 257.54C223.127 257.5 222.767 257.41 222.447 257.27C222.087 257.33 221.717 257.34 221.347 257.29C220.517 257.19 219.697 257.07 218.877 256.95C216.987 256.68 215.617 255.05 215.617 253.19C215.617 253.01 215.627 252.83 215.657 252.65C215.887 251.05 217.087 249.82 218.577 249.48C218.897 248.7 219.477 248.03 220.277 247.6L220.877 247.27C222.717 246.26 225.027 246.94 226.037 248.78C226.287 249.24 226.437 249.72 226.487 250.21C226.567 250.21 226.657 250.23 226.737 250.23C227.097 250.26 227.447 250.35 227.767 250.47C228.117 250.4 228.477 250.37 228.847 250.4L229.127 250.42C229.817 250.48 230.507 250.53 231.207 250.58C231.587 250.6 231.947 250.68 232.287 250.81C232.647 250.72 233.027 250.68 233.417 250.7L233.977 250.73C234.557 250.76 235.127 250.79 235.707 250.81C236.117 250.82 236.507 250.9 236.877 251.03C237.257 250.91 237.677 250.82 238.087 250.85H238.717C239.227 250.87 239.737 250.89 240.247 250.88C240.707 250.88 241.147 250.96 241.557 251.11C241.967 250.95 242.417 250.85 242.887 250.85H243.577C243.997 250.84 244.417 250.83 244.837 250.82C245.377 250.8 245.907 250.9 246.387 251.1C246.857 250.86 247.377 250.71 247.937 250.69L248.607 250.66C248.897 250.65 249.197 250.64 249.487 250.62C251.587 250.5 253.377 252.09 253.507 254.18C253.507 254.26 253.507 254.34 253.507 254.41C253.507 256.4 251.957 258.08 249.937 258.2C249.597 258.22 249.247 258.24 248.907 258.25L248.307 258.28C247.737 258.31 247.187 258.21 246.687 258.01C246.197 258.26 245.647 258.41 245.067 258.43C244.597 258.44 244.127 258.45 243.657 258.46H243.007C242.517 258.49 242.067 258.39 241.637 258.24C241.207 258.41 240.737 258.5 240.247 258.5L240.217 258.49Z" fill="white"/>
<path fill-rule="evenodd" clip-rule="evenodd" d="M24.887 85.76C-12.233 112.52 7.34703 157.09 24.877 116.31C37.437 87.07 43.267 72.51 24.887 85.76Z" fill="#002D66"/>
<path fill-rule="evenodd" clip-rule="evenodd" d="M51.7171 53.53C29.8371 56.87 26.8771 79.63 44.1571 66.3C56.5571 56.74 62.5571 51.89 51.7171 53.53Z" fill="#002D66"/>
<path d="M363.747 168.11C363.767 168.03 363.787 167.95 363.817 167.87C363.797 167.95 363.767 168.03 363.747 168.11ZM363.717 168.21C363.717 168.21 363.737 168.14 363.747 168.1C363.737 168.13 363.727 168.17 363.717 168.21ZM363.677 168.36C363.677 168.36 363.707 168.26 363.717 168.22C363.707 168.27 363.687 168.32 363.677 168.36ZM363.607 168.61C363.607 168.61 363.617 168.57 363.627 168.55C363.627 168.57 363.627 168.59 363.607 168.61ZM357.147 186.15C339.567 221.76 302.157 249.64 254.487 254.05C241.327 255.26 228.507 254.75 216.317 252.73C198.197 261.82 177.947 268.7 158.337 272.72C175.617 277.73 194.787 279.82 214.767 278.31C214.797 278.31 214.817 278.33 214.847 278.33C215.317 278.28 215.787 278.23 216.257 278.18C216.727 278.14 217.197 278.11 217.667 278.06C227.827 277.12 237.627 275.3 246.947 272.71C305.297 257.51 349.827 217.19 363.607 168.61C361.907 174.59 359.747 180.45 357.147 186.14V186.15Z" fill="#FFEC00"/>
<path d="M52.8071 222.34C53.2271 212.06 56.1671 200.9 61.6671 189.21C70.1671 171.13 84.0271 153.68 100.697 140.09C101.587 139.36 102.487 138.65 103.397 137.95C104.097 137.41 104.797 136.88 105.497 136.36C105.567 136.31 105.637 136.26 105.707 136.21C117.507 127.45 129.907 121.22 141.847 117.98C147.037 116.49 152.137 115.51 157.017 115.12C157.087 115.12 157.137 115.12 157.207 115.11C156.977 115.14 156.757 115.17 156.527 115.2C158.997 114.84 161.487 114.89 163.947 115.41C178.347 118.44 182.717 128.66 181.067 147.94C181.027 148.36 180.997 148.76 180.947 149.17V149.19C180.947 149.19 180.947 149.28 180.937 149.32C180.897 149.73 180.847 150.12 180.807 150.52C176.127 194.32 184.087 203.42 203.617 200.36C229.427 196.32 227.977 176.31 217.317 170.05C204.107 162.28 197.487 157.46 197.167 149.75C196.337 129.99 234.187 120.38 223.347 97.18C221.017 92.2 211.637 89.4 198.387 89.4C151.377 89.4 55.6171 124.59 52.7971 222.36L52.8071 222.34Z" fill="url(#paint0_linear_285_16)"/>
<path d="M157.037 115.11C139.037 116.55 118.077 125.93 100.707 140.09C84.0371 153.68 70.1671 171.13 61.6771 189.21C48.9471 216.3 49.8671 240.55 64.2871 257.5C77.0971 272.56 102.677 279.14 136.307 276.03C255.427 261.59 273.577 198.15 273.577 198.15C262.457 223.32 238.237 240.29 211.577 242.76C192.797 244.49 174.127 238.97 159.007 227.2C141.947 213.92 128.167 195.4 126.517 173.77C125.637 162.29 125.577 150.65 129.977 140.75C134.807 126.54 145.827 116.4 157.217 115.1C157.157 115.1 157.097 115.1 157.027 115.11H157.037Z" fill="url(#paint1_linear_285_16)"/>
<path d="M184.697 56.5899C184.697 56.5899 184.657 56.5899 184.627 56.6099C198.337 54.2699 210.487 53.3899 218.677 53.8799C267.127 56.7999 292.677 93.0199 250.357 133.78C236.327 147.3 289.787 154.2 273.567 198.15C273.567 198.15 264.627 229.38 218.127 253.01C229.767 254.78 241.977 255.2 254.487 254.04C302.157 249.63 339.567 221.76 357.147 186.14C363.347 172.55 367.067 158.07 367.887 143.12C367.957 141.81 368.007 140.51 368.027 139.2C368.027 138.97 368.027 138.73 368.037 138.5C368.037 137.8 368.037 137.09 368.037 136.39C367.987 135.2 367.897 134.03 367.787 132.86C367.757 132.5 367.707 132.14 367.667 131.78C367.577 130.96 367.477 130.15 367.357 129.34C367.297 128.95 367.237 128.56 367.177 128.17C367.037 127.35 366.887 126.53 366.717 125.72C366.647 125.4 366.597 125.07 366.517 124.76C366.267 123.64 365.997 122.54 365.697 121.44C365.657 121.3 365.607 121.15 365.567 121.01C365.297 120.06 364.997 119.12 364.687 118.18C364.577 117.84 364.457 117.51 364.337 117.17C364.067 116.42 363.787 115.67 363.497 114.92C363.357 114.58 363.227 114.24 363.087 113.9C362.747 113.09 362.397 112.28 362.017 111.48C361.907 111.25 361.817 111.02 361.707 110.79C361.217 109.76 360.697 108.74 360.157 107.74C360.067 107.57 359.957 107.4 359.867 107.23C359.407 106.4 358.937 105.58 358.447 104.77C358.277 104.48 358.097 104.2 357.917 103.91C357.467 103.2 357.007 102.48 356.527 101.78C356.347 101.51 356.167 101.24 355.987 100.97C355.397 100.13 354.797 99.2899 354.177 98.4699C354.107 98.3699 354.037 98.2799 353.957 98.1799C353.227 97.2299 352.477 96.2899 351.707 95.3699C351.587 95.2199 351.457 95.0699 351.327 94.9199C350.687 94.1599 350.027 93.4199 349.357 92.6799C349.157 92.4599 348.947 92.2399 348.747 92.0199C348.097 91.3199 347.427 90.6299 346.747 89.9499C346.567 89.7699 346.397 89.5899 346.217 89.4099C344.457 87.6799 342.607 85.9899 340.677 84.3699C340.547 84.2599 340.417 84.1599 340.287 84.0499C339.447 83.3499 338.587 82.6599 337.717 81.9799C337.527 81.8299 337.327 81.6799 337.137 81.5299C336.247 80.8399 335.327 80.1599 334.407 79.4999C334.297 79.4199 334.177 79.3399 334.067 79.2499C331.907 77.7099 329.667 76.2299 327.347 74.7999C327.247 74.7399 327.147 74.6799 327.047 74.6199C325.987 73.9799 324.917 73.3399 323.827 72.7199C323.687 72.6399 323.547 72.5599 323.407 72.4799C319.777 70.4299 315.987 68.5199 312.047 66.7499C311.997 66.7299 311.947 66.6999 311.887 66.6799C310.607 66.1099 309.317 65.5599 308.007 65.0099C307.947 64.9899 307.887 64.9599 307.827 64.9399C303.727 63.2399 299.487 61.6999 295.127 60.3099C295.117 60.3099 295.097 60.3099 295.087 60.2999C289.237 58.4299 283.167 56.8299 276.947 55.5199C263.027 52.5899 248.307 51.0599 233.367 51.0599C217.137 51.0599 200.667 52.8599 184.707 56.5999L184.697 56.5899Z" fill="url(#paint2_linear_285_16)"/>
<path d="M189.557 4.66998C114.607 11.6 44.9071 58.89 40.0371 117.13C38.9471 130.2 49.1571 135.47 65.4071 120.93C100.917 89.15 136.817 69.9 170.897 60.08C175.687 58.65 180.287 57.5 184.697 56.59C267.987 37.06 365.367 70.39 368.047 136.39C368.047 136.01 368.047 135.64 368.047 135.27C368.047 134.93 368.047 134.6 368.027 134.26C368.007 133.25 367.967 132.24 367.917 131.22C367.897 130.87 367.887 130.52 367.867 130.18C367.787 128.86 367.697 127.53 367.577 126.2C364.517 93.14 347.547 64.12 321.767 42.65C319.927 41.11 318.037 39.62 316.107 38.17C311.287 34.53 306.187 31.14 300.857 28.02C298.727 26.77 296.557 25.57 294.347 24.4C293.247 23.82 292.137 23.25 291.007 22.69C284.277 19.34 277.217 16.39 269.897 13.88C267.457 13.04 264.987 12.26 262.487 11.52C245.487 6.49998 227.197 3.78998 208.187 3.78998C202.037 3.78998 195.817 4.06998 189.537 4.64998L189.557 4.66998Z" fill="#002F6A"/>
<defs>
<linearGradient id="paint0_linear_285_16" x1="139.057" y1="89.38" x2="139.057" y2="222.34" gradientUnits="userSpaceOnUse">
<stop stop-color="#D20819"/>
<stop offset="0.4" stop-color="#C50D1B"/>
<stop offset="1" stop-color="#B7141E"/>
</linearGradient>
<linearGradient id="paint1_linear_285_16" x1="163.157" y1="276.78" x2="163.157" y2="115.1" gradientUnits="userSpaceOnUse">
<stop stop-color="#FBB200"/>
<stop offset="0.64" stop-color="#F38D00"/>
<stop offset="1" stop-color="#F17F00"/>
</linearGradient>
<linearGradient id="paint2_linear_285_16" x1="276.337" y1="254.69" x2="276.337" y2="51.0499" gradientUnits="userSpaceOnUse">
<stop stop-color="#B1C900"/>
<stop offset="0.17" stop-color="#71B845"/>
<stop offset="0.34" stop-color="#37AA84"/>
<stop offset="0.46" stop-color="#14A1AB"/>
<stop offset="0.53" stop-color="#079EBA"/>
<stop offset="0.63" stop-color="#0386B4"/>
<stop offset="0.73" stop-color="#0176B0"/>
<stop offset="0.85" stop-color="#006CAE"/>
<stop offset="1" stop-color="#0069AE"/>
</linearGradient>
</defs>
</svg>
