<svg width="368" height="283" viewBox="0 0 368 283" fill="none" xmlns="http://www.w3.org/2000/svg">
<path d="M10.4679 136.57C10.2799 136.57 10.0918 136.57 9.90381 136.55C5.71746 136.29 2.32285 133.02 0.838334 127.81C-1.95257 118.03 1.49152 97.93 22.4332 82.68C28.9948 77.9 34.1114 75.32 37.7534 78.26C42.8008 82.35 39.2083 91.62 28.0743 117.81C21.5425 133.17 14.9908 136.57 10.4679 136.57ZM32.3201 85.32C31.1918 85.89 29.4401 86.94 26.8274 88.84C9.16155 101.71 5.94509 118.28 8.063 125.7C8.60733 127.6 9.53763 128.91 10.369 128.96C11.992 129.02 16.2971 126.23 21.1565 114.8C25.5309 104.51 31.3007 90.93 32.3201 85.31V85.32Z" fill="white"/>
<path d="M35.2198 74.26C33.9134 74.26 32.7357 73.93 31.7064 73.28C29.4302 71.84 28.4504 69.11 29.0838 65.98C30.4 59.53 38.3967 51.66 50.6192 49.77C53.3903 49.34 58.5367 48.55 60.1696 52.42C62.0302 56.81 57.6657 60.21 45.9974 69.3C41.7616 72.6 38.1591 74.26 35.2198 74.26ZM47.8778 58.17C41.623 60.09 38.1393 63.79 36.9121 66.15C37.9513 65.68 39.4457 64.82 41.4053 63.29C43.355 61.77 45.75 59.91 47.8778 58.17Z" fill="white"/>
<path d="M52.2028 229.09C50.7777 229.09 49.5406 228.29 48.8973 227.11C48.63 226.61 48.4717 226.03 48.4519 225.43C48.4519 225.42 48.4519 225.4 48.4519 225.39C48.4519 225.36 48.4519 225.34 48.4519 225.31V225.18C48.4519 223.08 50.1344 221.38 52.2127 221.38C54.291 221.38 55.924 223.03 55.9735 225.09C55.9735 225.16 55.9735 225.23 55.9735 225.3C55.9735 225.7 55.9141 226.09 55.7953 226.47C55.3104 228 53.8951 229.11 52.2127 229.11L52.2028 229.09Z" fill="white"/>
<path d="M199.853 282.59C184.85 282.59 170.242 280.57 156.288 276.54C149.488 277.83 142.481 278.92 135.346 279.79C135.306 279.79 135.277 279.79 135.237 279.8C100.697 283.03 74.243 275.98 60.7437 259.95C52.183 249.78 47.9472 236.78 48.4915 222.34C48.4915 222.3 48.4915 222.26 48.4915 222.22C50.075 166.68 80.4978 133.84 105.745 116.07C137.721 93.56 174.527 85.57 196.34 85.57C205.118 85.57 220.439 86.87 224.457 95.54C231.622 111.04 220.449 121.72 211.482 130.3C204.861 136.63 198.616 142.61 198.903 149.56C199.141 155.25 204.426 159.29 216.995 166.75C223.517 170.62 227.089 178.55 225.684 186.02C224.853 190.46 220.874 201.11 202.11 204.08C196.201 205.01 187.641 205.58 181.604 199.77C174.191 192.64 172.281 177.78 175.21 150.08C175.26 149.66 175.299 149.28 175.339 148.89C175.339 148.83 175.339 148.78 175.349 148.73C175.388 148.35 175.428 147.97 175.458 147.58C177.229 126.7 171.42 121.2 161.493 119.09C159.633 118.7 157.683 118.63 155.684 118.9C145.817 120.22 136.375 129.48 132.189 141.94C132.149 142.05 132.11 142.16 132.06 142.26C127.953 151.57 128.141 162.75 128.943 173.45C130.318 191.66 141.225 209.67 159.652 224.17C173.854 235.34 191.382 240.59 209.018 238.95C234.542 236.57 256.839 220.38 267.241 196.7C275.9 172.85 262.639 161.54 251.98 152.44C246.309 147.6 241.826 143.77 241.657 138.61C241.568 135.91 242.746 133.36 245.151 131.01C262.065 114.55 268.597 97.83 263.529 83.95C258.136 69.17 239.995 59.09 216.183 57.64C208.038 57.14 196.083 58.12 183.355 60.32C179.05 61.22 174.626 62.36 170.183 63.69C134.376 74.12 99.7471 94.31 67.2163 123.73C54.3108 135.4 46.2152 134.04 42.5435 132.19C37.6842 129.75 35.2496 124.13 35.8533 116.79C38.2285 88.11 55.8052 60.32 85.367 38.56C113.652 17.77 149.835 4.38 187.255 0.88C193.48 0.3 199.804 0 206.059 0C224.892 0 243.33 2.65 260.857 7.88C263.381 8.63 265.895 9.45 268.339 10.29C275.673 12.83 282.858 15.85 289.687 19.29C290.825 19.86 291.943 20.44 293.061 21.03C295.387 22.27 297.604 23.51 299.663 24.74C305.046 27.92 310.242 31.42 315.112 35.14C317.061 36.62 318.991 38.17 320.852 39.74C347.959 62.55 364.526 93.13 367.525 125.85C367.644 127.13 367.743 128.47 367.822 129.96L367.871 131.05C367.921 132.09 367.96 133.13 367.98 134.17L368 135.22C368 135.49 368 135.76 368 136.02V136.38C368 137.08 368 137.81 368 138.54V139.26C367.96 140.64 367.911 141.99 367.842 143.28C367.842 143.29 367.842 143.31 367.842 143.32C367.367 152.05 365.912 160.82 363.527 169.4C363.507 169.48 363.487 169.55 363.467 169.63C363.438 169.74 363.408 169.84 363.368 169.95L363.339 170.05C363.339 170.06 363.339 170.07 363.329 170.09C362.903 171.57 362.507 172.9 362.102 174.16L362.072 174.25C361.666 175.52 361.201 176.86 360.657 178.37L360.528 178.75C360.528 178.75 360.508 178.81 360.498 178.84C360.498 178.84 360.498 178.84 360.498 178.85C360.498 178.85 360.478 178.89 360.478 178.91L360.37 179.19C359.895 180.47 359.4 181.74 358.895 183.01L358.786 183.28C358.786 183.28 358.766 183.32 358.756 183.35C358.756 183.35 358.737 183.4 358.727 183.43L358.519 183.93C357.994 185.2 357.46 186.46 356.896 187.71C356.876 187.75 356.856 187.79 356.836 187.83C356.836 187.83 356.836 187.84 356.836 187.85C337.805 229.92 296.139 263.01 245.359 276.38C235.799 279.06 225.832 280.9 215.777 281.84L213.016 282.1C212.828 282.12 212.65 282.12 212.462 282.11C208.236 282.42 204.03 282.58 199.863 282.58L199.853 282.59ZM166.887 271.42C181.435 274.67 196.657 275.71 212.264 274.52C212.393 274.52 212.511 274.51 212.64 274.52L215.075 274.3C224.674 273.41 234.205 271.65 243.389 269.07C292.092 256.25 331.926 224.7 350.008 184.64C350.027 184.6 350.047 184.56 350.067 184.52C350.067 184.52 350.067 184.52 350.067 184.5C350.582 183.35 351.077 182.19 351.561 181.02L351.621 180.88C351.621 180.88 351.651 180.81 351.66 180.78L351.878 180.26C351.878 180.26 351.898 180.21 351.908 180.18V180.14C352.403 178.96 352.868 177.76 353.313 176.56V176.53C353.313 176.53 353.343 176.48 353.353 176.45L353.551 175.9C353.551 175.9 353.57 175.86 353.58 175.83L353.6 175.78C354.115 174.36 354.55 173.09 354.926 171.92C355.332 170.64 355.718 169.38 356.114 167.98C358.45 159.74 359.875 151.33 360.33 142.96C360.33 142.95 360.33 142.94 360.33 142.93C360.399 141.67 360.439 140.41 360.469 139.14V138.45C360.488 137.79 360.488 137.1 360.478 136.43V136.02V135.05C360.409 134.81 360.36 134.56 360.34 134.3V134.28L360.32 134.01C360.32 134.01 360.32 133.99 360.32 133.98C360.281 133.54 360.241 133.1 360.191 132.65C360.191 132.57 360.182 132.5 360.172 132.42C360.162 132.34 360.142 132.26 360.132 132.17C360.023 131.17 359.895 130.19 359.746 129.25C359.736 129.18 359.726 129.11 359.716 129.04C359.716 128.99 359.707 128.94 359.697 128.89C359.697 128.86 359.687 128.83 359.677 128.8C359.657 128.71 359.647 128.62 359.627 128.52C359.509 127.84 359.38 127.16 359.241 126.49L359.152 126.05C359.133 125.95 359.113 125.84 359.093 125.74C359.053 125.57 359.024 125.4 358.984 125.23C358.776 124.32 358.549 123.4 358.311 122.51C358.291 122.44 358.272 122.38 358.262 122.31C358.222 122.2 358.182 122.09 358.153 121.98C358.044 121.6 357.935 121.23 357.816 120.85C357.618 120.2 357.41 119.55 357.183 118.9C357.133 118.76 357.084 118.61 357.034 118.47V118.45C356.787 117.75 356.53 117.06 356.262 116.37C356.193 116.19 356.134 116.01 356.094 115.83C356.005 115.67 355.916 115.51 355.847 115.34C355.55 114.63 355.243 113.92 354.926 113.22C354.907 113.18 354.897 113.15 354.877 113.11C354.818 112.98 354.768 112.85 354.719 112.72C354.659 112.63 354.61 112.53 354.57 112.43C354.451 112.17 354.323 111.91 354.194 111.65C353.858 110.95 353.501 110.26 353.135 109.58C353.135 109.56 353.115 109.54 353.105 109.53C353.086 109.5 353.066 109.47 353.046 109.43L352.868 109.11C352.63 108.68 352.393 108.25 352.155 107.83C351.908 107.4 351.641 106.96 351.364 106.5C351.304 106.39 351.245 106.28 351.185 106.17C351.106 106.07 351.037 105.97 350.978 105.87C350.74 105.49 350.503 105.11 350.255 104.73C350.156 104.58 350.057 104.43 349.968 104.28C349.889 104.16 349.81 104.04 349.731 103.92L349.602 103.73C349.602 103.73 349.592 103.71 349.582 103.71C349.582 103.71 349.572 103.69 349.562 103.69C349.493 103.59 349.434 103.49 349.384 103.38C349.305 103.29 349.226 103.19 349.157 103.09C348.959 102.81 348.771 102.53 348.573 102.25C348.256 101.8 347.919 101.35 347.593 100.9C347.593 100.9 347.593 100.89 347.583 100.88C347.524 100.8 347.464 100.71 347.405 100.62C347.365 100.57 347.326 100.52 347.286 100.47C346.623 99.6 345.93 98.72 345.218 97.86C345.178 97.81 345.138 97.76 345.099 97.71C345.059 97.67 345.03 97.63 344.99 97.59C344.97 97.57 344.891 97.48 344.881 97.46C344.218 96.67 343.604 95.97 342.981 95.27C342.882 95.16 342.783 95.04 342.694 94.91C342.575 94.81 342.466 94.7 342.357 94.59C341.764 93.95 341.15 93.31 340.536 92.68C340.437 92.58 340.338 92.47 340.249 92.36C340.15 92.28 340.061 92.19 339.962 92.1C338.795 90.93 337.587 89.8 336.37 88.71C335.835 88.23 335.291 87.76 334.747 87.3C334.727 87.28 334.707 87.26 334.687 87.25C334.668 87.24 334.648 87.22 334.628 87.21L334.371 87C333.549 86.31 332.738 85.65 331.906 85C331.708 84.84 331.54 84.71 331.372 84.58C330.491 83.89 329.62 83.24 328.749 82.61L328.423 82.37C327.69 81.84 326.938 81.31 326.186 80.8C324.88 79.91 323.504 79.01 322.099 78.14C322.049 78.11 321.99 78.07 321.94 78.04C321.871 78 321.802 77.96 321.732 77.92C321.723 77.92 321.713 77.91 321.703 77.9C320.713 77.29 319.704 76.69 318.684 76.1C318.546 76.02 318.417 75.93 318.288 75.84L318.269 75.87C318.209 75.83 318.14 75.8 318.081 75.76C317.269 75.3 316.467 74.85 315.656 74.42C315.636 74.42 315.616 74.4 315.606 74.39C315.596 74.39 315.577 74.38 315.567 74.37C315.517 74.34 315.458 74.31 315.408 74.28C314.587 73.84 313.756 73.4 312.924 72.98C312.914 72.98 312.905 72.97 312.885 72.96C312.855 72.95 312.825 72.93 312.806 72.92C312.657 72.84 312.499 72.76 312.34 72.69C311.638 72.34 310.925 71.99 310.213 71.64C310.163 71.62 310.124 71.6 310.084 71.57C310.034 71.55 309.985 71.53 309.935 71.5C309.243 71.17 308.56 70.84 307.857 70.52C307.709 70.45 307.57 70.39 307.422 70.32C307.362 70.29 307.293 70.26 307.234 70.23C307.164 70.2 307.095 70.18 307.036 70.15C307.036 70.15 307.016 70.15 307.006 70.14C305.838 69.61 304.651 69.1 303.453 68.6C303.413 68.58 303.374 68.57 303.344 68.55C303.305 68.54 303.275 68.52 303.245 68.51C302.731 68.3 302.216 68.08 301.691 67.87C301.266 67.7 300.83 67.52 300.395 67.35C300.375 67.35 300.355 67.34 300.336 67.33C300.306 67.32 300.276 67.31 300.247 67.29C300.217 67.28 300.177 67.27 300.148 67.25C299.197 66.88 298.228 66.51 297.268 66.15C297.248 66.15 297.218 66.13 297.198 66.12C297.169 66.12 297.149 66.1 297.119 66.09C296.12 65.72 295.12 65.36 294.11 65.02L294.051 65C293.814 64.92 293.576 64.84 293.339 64.76C292.547 64.49 291.755 64.23 290.953 63.97C290.943 63.97 290.934 63.97 290.914 63.96C285.243 62.13 279.325 60.56 273.327 59.28C264.984 57.5 256.295 56.25 247.516 55.56C247.506 55.56 247.487 55.56 247.477 55.56C247.407 55.56 247.348 55.55 247.279 55.54C247.249 55.54 247.229 55.54 247.2 55.54C247.17 55.54 247.14 55.54 247.111 55.54C247.041 55.54 246.972 55.54 246.913 55.52C246.596 55.5 246.279 55.47 245.953 55.45C244.458 55.34 242.964 55.25 241.459 55.18C255.849 60.54 266.35 69.74 270.615 81.42C276.781 98.31 269.596 117.9 250.406 136.58C249.634 137.33 249.199 138.02 249.209 138.46C249.268 140.24 253.484 143.84 256.869 146.73C267.32 155.65 284.808 170.57 274.337 199.42C274.337 199.43 274.337 199.45 274.327 199.46C274.307 199.52 274.287 199.59 274.267 199.65C274.267 199.68 274.248 199.72 274.238 199.75C274.238 199.78 274.218 199.82 274.208 199.84C274.188 199.89 274.168 199.95 274.149 200C274.129 200.06 274.109 200.12 274.089 200.18C274.089 200.18 274.079 200.22 274.069 200.24C274.069 200.26 274.05 200.29 274.05 200.3C274.02 200.39 273.98 200.48 273.951 200.56C273.921 200.65 273.901 200.74 273.862 200.83L273.802 201.01C273.693 201.29 273.565 201.55 273.406 201.79C273.357 202.07 273.278 202.35 273.169 202.63L273.06 202.88C273.001 203.02 272.931 203.16 272.852 203.29C272.813 203.43 272.753 203.58 272.694 203.72L272.595 203.68C272.595 203.68 272.595 203.69 272.585 203.7L272.694 203.75L272.615 203.92C272.526 204.11 272.427 204.29 272.318 204.45C272.268 204.63 272.199 204.81 272.12 204.99C272.12 204.99 272.12 204.99 272.12 205C272.12 205 272.12 205 272.12 205.01V205.03C272.12 205.03 272.07 205.13 272.07 205.14L272.031 205.22C271.942 205.4 271.843 205.58 271.734 205.74C271.674 205.93 271.605 206.11 271.516 206.3V206.32L271.338 206.23L271.506 206.32L271.467 206.4L271.378 206.58C271.12 207.1 270.754 207.53 270.338 207.86C270.299 208.4 270.15 208.94 269.863 209.44L269.695 209.74C269.547 209.99 269.388 210.22 269.2 210.43C269.111 210.7 268.992 210.97 268.844 211.22L268.507 211.02C268.507 211.02 268.488 211.03 268.478 211.04L268.824 211.25L268.468 211.04C268.468 211.04 268.369 211.1 268.319 211.13C268.3 211.78 268.112 212.44 267.736 213.03L267.637 213.19C267.637 213.19 267.637 213.19 267.637 213.2L267.607 213.25C267.439 213.52 267.231 213.76 267.013 213.98C266.914 214.27 266.776 214.55 266.607 214.82L266.211 214.57L266.607 214.83L266.419 215.11C265.944 215.83 265.261 216.34 264.499 216.6C264.499 217.4 264.272 218.21 263.767 218.9L263.51 219.24C263.262 219.57 262.965 219.85 262.639 220.08C262.51 220.46 262.312 220.83 262.045 221.17C262.025 221.19 262.005 221.22 261.985 221.24C261.698 221.6 261.352 221.9 260.986 222.12C260.837 222.54 260.62 222.95 260.323 223.31L260.184 223.48C259.887 223.83 259.551 224.12 259.175 224.33C259.016 224.74 258.789 225.12 258.482 225.47L258.244 225.74C257.463 226.63 256.354 227.04 255.256 227.01C255.275 227.15 255.275 227.3 255.275 227.44C255.275 228.4 254.909 229.37 254.187 230.11L253.86 230.44C252.91 231.4 251.574 231.74 250.357 231.46C250.574 232.7 250.179 234.03 249.179 234.94L248.922 235.17C248.506 235.55 248.021 235.82 247.516 235.98C247.299 236.46 246.972 236.9 246.546 237.26L246.24 237.52C244.973 238.61 243.201 238.7 241.855 237.88C242.35 239.38 241.875 241.1 240.559 242.11L240.123 242.44C238.461 243.7 236.105 243.35 234.858 241.68C234.522 241.23 234.304 240.72 234.195 240.2C233.948 240.31 233.71 240.42 233.463 240.52C233.977 240.81 234.433 241.22 234.769 241.75C235.195 242.4 235.393 243.12 235.393 243.84C235.393 245.07 234.799 246.28 233.71 247.01L233.324 247.26C232.76 247.64 232.127 247.84 231.493 247.88C231.196 248.45 230.741 248.95 230.157 249.32L229.761 249.57C228 250.68 225.684 250.14 224.585 248.36C224.199 247.73 224.011 247.04 224.011 246.35C224.011 245.31 224.437 244.28 225.229 243.55C220.251 245.07 215.084 246.1 209.79 246.6C190.243 248.43 170.826 242.62 155.11 230.25C134.99 214.42 123.054 194.49 121.52 174.12C120.639 162.49 120.481 150.24 125.192 139.42C127.102 133.8 129.952 128.72 133.426 124.47C123.974 128.2 114.394 133.63 105.764 140.21C105.616 140.32 105.467 140.42 105.309 140.51C105.19 140.64 105.052 140.75 104.913 140.87C103.993 141.58 103.082 142.3 102.182 143.04C102.162 143.06 102.142 143.08 102.112 143.09C100.499 144.42 98.1339 144.18 96.8275 142.55C95.5112 140.93 95.7587 138.53 97.3619 137.21C98.2724 136.46 99.1928 135.73 100.123 135L100.281 134.88C100.301 134.86 100.321 134.85 100.341 134.84C100.489 134.73 100.638 134.64 100.786 134.56C100.925 134.42 101.073 134.28 101.241 134.15L102.488 133.2C114.424 124.25 127.231 117.73 139.483 114.38C139.532 114.36 139.651 114.33 139.76 114.3C139.76 114.3 139.819 114.29 139.849 114.28C140.344 114.14 140.849 114.1 141.333 114.16C141.719 113.87 142.165 113.65 142.66 113.52L142.986 113.44C143.224 113.38 143.461 113.32 143.689 113.26C144.213 113.14 144.728 113.13 145.223 113.22C145.629 112.93 146.104 112.73 146.628 112.62L146.955 112.55C147.133 112.51 147.311 112.47 147.489 112.44C147.489 112.44 147.499 112.44 147.509 112.44C147.529 112.44 147.549 112.44 147.568 112.43C148.103 112.33 148.627 112.35 149.122 112.47C149.548 112.2 150.033 112.02 150.557 111.94L150.834 111.9C151.022 111.87 151.22 111.84 151.408 111.81C151.834 111.75 152.25 111.77 152.646 111.85C153.348 111.7 154.051 111.57 154.763 111.48C157.604 111.1 160.415 111.19 163.106 111.76C183.138 116.02 184.276 133.54 183.019 148.33C182.989 148.73 182.95 149.13 182.91 149.52C182.91 149.55 182.91 149.57 182.91 149.6L182.89 149.77C182.841 150.2 182.801 150.62 182.752 151.03C180.169 175.41 181.475 189.19 186.859 194.37C189.66 197.07 194.034 197.78 201.011 196.68C210.898 195.11 217.232 190.75 218.36 184.7C219.182 180.32 217.084 175.67 213.244 173.4C200.348 165.74 191.867 159.97 191.451 149.98C191.015 139.57 198.824 132.1 206.375 124.88C216.46 115.24 222.25 108.67 217.707 98.85C216.421 96.07 209.334 93.26 196.409 93.26C159.583 93.26 84.308 117.35 62.2283 185.66C62.3866 185.71 62.5351 185.77 62.6934 185.84C64.5738 186.73 65.3755 189 64.4946 190.89C64.1383 191.66 63.792 192.43 63.4456 193.2C63.406 193.3 63.3565 193.4 63.2971 193.5C63.2575 193.61 63.218 193.73 63.1685 193.84C62.9309 194.4 62.6934 194.95 62.4658 195.5C62.4163 195.63 62.3569 195.75 62.2876 195.87C62.2481 196.01 62.1986 196.15 62.1491 196.28C61.9512 196.78 61.7532 197.28 61.5553 197.78C61.5058 197.92 61.4365 198.06 61.3672 198.18C61.3277 198.32 61.2881 198.47 61.2386 198.61C61.0604 199.08 60.8922 199.55 60.724 200.03C60.6745 200.18 60.6151 200.32 60.5458 200.46C60.5161 200.61 60.4765 200.75 60.427 200.89C60.2687 201.36 60.1202 201.81 59.9619 202.27C59.9124 202.42 59.853 202.57 59.7838 202.71C59.7541 202.85 59.7244 202.99 59.6749 203.13C59.5264 203.61 59.378 204.08 59.2394 204.56C59.1998 204.7 59.1504 204.84 59.091 204.97C59.0712 205.09 59.0415 205.22 59.0019 205.34C58.804 206.02 58.6159 206.7 58.4378 207.38C58.3883 207.57 58.319 207.76 58.2498 207.93C58.23 208.14 58.2003 208.34 58.1508 208.55L57.9232 209.48C57.8737 209.69 57.8044 209.89 57.7252 210.08C57.7252 210.27 57.6955 210.46 57.6559 210.66C57.6559 210.68 57.6559 210.71 57.6362 210.73L57.458 211.54C57.4085 211.76 57.3491 211.97 57.27 212.17C57.27 212.39 57.2502 212.61 57.2007 212.84L57.072 213.56C57.0324 213.79 56.9731 214.01 56.8939 214.23C56.8939 214.26 56.8939 214.28 56.8939 214.31C56.8939 214.51 56.8741 214.71 56.8444 214.91L56.7553 215.52C56.7157 215.77 56.6564 216.01 56.5772 216.23C56.5772 216.31 56.5772 216.38 56.5772 216.46C56.5772 216.62 56.5673 216.79 56.5475 216.96L56.5079 217.3C56.4683 217.65 56.3793 217.98 56.2506 218.29C56.1813 219.55 56.1219 220.81 56.0823 222.09C56.0823 222.18 56.0823 222.27 56.0823 222.36C55.5182 235.19 59.0415 246.2 66.5334 255.1C78.3898 269.18 102.538 275.29 134.554 272.31C144.144 271.13 153.516 269.56 162.404 267.62C164.423 267.18 166.412 268.47 166.857 270.5C166.927 270.83 166.956 271.16 166.946 271.48L166.887 271.42ZM206.049 7.6C200.031 7.6 193.935 7.88 187.938 8.45C151.844 11.82 116.997 24.71 89.8107 44.73C62.0501 65.17 45.5521 91 43.365 117.45C43.0285 121.47 43.9786 124.45 45.9084 125.42C48.4618 126.7 54.0832 125.45 62.2184 118.1C95.6003 87.92 131.219 67.17 168.085 56.43C172.736 55.03 177.427 53.83 181.98 52.88C183.583 52.5 185.285 52.13 187.324 51.7C187.542 51.66 187.759 51.63 187.967 51.62C188.165 51.54 188.383 51.48 188.601 51.43C190.57 51.03 192.332 50.7 193.994 50.41C194.064 50.4 194.143 50.39 194.212 50.38C194.262 50.37 194.321 50.36 194.37 50.35C196.083 50.06 197.795 49.79 199.517 49.53C199.537 49.53 199.556 49.53 199.566 49.53C199.754 49.5 199.972 49.49 200.121 49.49C200.299 49.44 200.487 49.39 200.675 49.37C201.714 49.22 202.723 49.09 203.703 48.96C204.564 48.85 205.405 48.75 206.227 48.65C206.306 48.65 206.385 48.63 206.464 48.63C206.524 48.63 206.583 48.61 206.643 48.61C206.643 48.61 206.702 48.61 206.732 48.6C208.266 48.43 209.849 48.27 211.541 48.12C211.69 48.11 211.848 48.09 212.007 48.08C212.135 48.07 212.274 48.07 212.402 48.07C212.541 48.04 212.67 48.03 212.808 48.01C212.808 48.01 212.828 48.01 212.838 48.01C213.927 47.92 215.015 47.84 216.084 47.76C216.915 47.7 217.737 47.65 218.529 47.61C218.529 47.61 218.538 47.62 218.548 47.61C218.608 47.61 218.667 47.61 218.727 47.61C218.776 47.61 218.825 47.61 218.875 47.6C220.736 47.5 222.646 47.42 224.556 47.36C224.615 47.36 224.674 47.36 224.724 47.36C224.793 47.36 224.863 47.36 224.932 47.35C224.932 47.35 224.991 47.35 225.021 47.35C225.892 47.33 226.763 47.31 227.644 47.29C228.732 47.27 229.811 47.27 230.87 47.26C230.87 47.26 230.949 47.26 230.999 47.26C231.028 47.26 231.078 47.26 231.088 47.26C232.839 47.26 234.591 47.28 236.343 47.33C236.373 47.33 236.402 47.33 236.422 47.33C236.452 47.33 236.491 47.33 236.521 47.33C236.561 47.33 236.61 47.33 236.66 47.33C236.66 47.33 236.729 47.33 236.758 47.33C240.203 47.42 243.696 47.6 247.15 47.86C247.318 47.87 247.497 47.89 247.665 47.9C247.694 47.9 247.714 47.9 247.744 47.9H247.833C264.687 49.22 280.74 52.43 295.565 57.45C295.575 57.45 295.595 57.45 295.605 57.46C295.902 57.56 296.199 57.66 296.486 57.76C296.505 57.76 296.525 57.77 296.545 57.78C297.594 58.14 298.633 58.51 299.663 58.89C299.692 58.89 299.712 58.91 299.742 58.92L299.821 58.95C300.84 59.33 301.85 59.71 302.849 60.1C302.879 60.11 302.909 60.12 302.938 60.14C302.978 60.15 303.008 60.17 303.037 60.18C303.522 60.37 304.007 60.56 304.492 60.76C305.017 60.97 305.541 61.19 306.066 61.41C306.105 61.43 306.155 61.45 306.195 61.47C306.234 61.48 306.264 61.5 306.303 61.51C306.303 61.51 306.303 61.51 306.313 61.51C307.57 62.04 308.817 62.58 310.054 63.13C310.124 63.16 310.183 63.19 310.252 63.23C310.321 63.26 310.401 63.29 310.47 63.32C310.47 63.32 310.49 63.33 310.509 63.34C310.638 63.4 310.767 63.46 310.895 63.52C311.638 63.86 312.38 64.21 313.112 64.56C313.112 64.56 313.112 64.56 313.122 64.56C313.172 64.58 313.221 64.61 313.261 64.63C313.31 64.65 313.36 64.67 313.409 64.7C314.171 65.07 314.933 65.44 315.686 65.82C315.844 65.9 315.992 65.98 316.151 66.06C316.161 66.06 316.18 66.07 316.19 66.08C316.22 66.09 316.25 66.11 316.279 66.12C316.279 66.12 316.279 66.12 316.289 66.12C317.22 66.59 318.13 67.07 319.041 67.56C319.05 67.56 319.07 67.57 319.08 67.58C320.04 68.1 321 68.63 321.94 69.16L321.921 69.19C322.079 69.25 322.227 69.33 322.376 69.41C322.376 69.41 322.396 69.42 322.405 69.43C323.494 70.06 324.563 70.69 325.622 71.35C325.642 71.36 325.662 71.37 325.671 71.38C325.711 71.41 325.751 71.43 325.79 71.46C325.869 71.5 325.939 71.54 326.008 71.59C326.008 71.59 326.028 71.6 326.038 71.61C327.601 72.58 329.125 73.58 330.61 74.6C331.342 75.1 332.055 75.6 332.748 76.11L332.777 76.13C335.073 77.79 337.28 79.51 339.369 81.27C339.388 81.29 339.418 81.31 339.438 81.33C339.477 81.36 339.507 81.39 339.537 81.41C340.131 81.91 340.715 82.42 341.298 82.94C342.635 84.13 343.941 85.36 345.198 86.61C345.307 86.72 345.416 86.84 345.505 86.96C345.613 87.05 345.712 87.14 345.811 87.24C346.484 87.92 347.147 88.61 347.791 89.31C347.91 89.44 348.018 89.57 348.107 89.7C348.236 89.81 348.365 89.93 348.474 90.06C349.206 90.87 349.909 91.68 350.601 92.51C350.651 92.56 350.691 92.62 350.73 92.68C350.799 92.75 350.859 92.82 350.928 92.9C351.314 93.37 351.7 93.84 352.066 94.31C344.604 76.01 332.312 59.28 315.963 45.52C314.201 44.03 312.36 42.56 310.509 41.15C305.868 37.61 300.91 34.28 295.783 31.24C293.814 30.07 291.696 28.88 289.479 27.7C288.42 27.14 287.341 26.58 286.252 26.03C279.721 22.74 272.842 19.85 265.816 17.42C263.47 16.61 261.055 15.83 258.64 15.11C241.806 10.09 224.081 7.54 205.97 7.54L206.049 7.6ZM237.738 258.49C237.738 258.49 237.718 258.49 237.699 258.49C237.154 258.49 236.62 258.48 236.086 258.47H235.482C235.056 258.45 234.641 258.37 234.255 258.23C233.859 258.36 233.423 258.42 232.988 258.41C232.374 258.39 231.771 258.36 231.157 258.33L230.613 258.3C230.217 258.28 229.831 258.2 229.484 258.07C229.108 258.17 228.712 258.21 228.307 258.18C227.574 258.13 226.852 258.07 226.129 258.02L225.852 258C225.476 257.97 225.12 257.88 224.783 257.75C224.427 257.83 224.051 257.85 223.665 257.81C222.883 257.73 222.111 257.65 221.339 257.56L221.191 257.54C220.825 257.5 220.468 257.41 220.152 257.27C219.795 257.33 219.429 257.34 219.063 257.29C218.242 257.19 217.43 257.07 216.618 256.95C214.748 256.68 213.392 255.05 213.392 253.19C213.392 253.01 213.402 252.83 213.432 252.65C213.659 251.05 214.847 249.82 216.322 249.48C216.638 248.7 217.212 248.03 218.004 247.6L218.598 247.27C220.419 246.26 222.705 246.94 223.705 248.78C223.952 249.24 224.1 249.72 224.15 250.21C224.229 250.21 224.318 250.23 224.397 250.23C224.754 250.26 225.1 250.35 225.417 250.47C225.763 250.4 226.119 250.37 226.486 250.4L226.763 250.42C227.446 250.48 228.128 250.53 228.821 250.58C229.197 250.6 229.554 250.68 229.89 250.81C230.246 250.72 230.622 250.68 231.008 250.7L231.563 250.73C232.137 250.76 232.701 250.79 233.275 250.81C233.681 250.82 234.067 250.9 234.433 251.03C234.809 250.91 235.224 250.82 235.63 250.85H236.254C236.758 250.87 237.263 250.89 237.768 250.88C238.223 250.88 238.659 250.96 239.064 251.11C239.47 250.95 239.916 250.85 240.381 250.85H241.064C241.479 250.84 241.895 250.83 242.311 250.82C242.845 250.8 243.37 250.9 243.845 251.1C244.31 250.86 244.824 250.71 245.379 250.69L246.042 250.66C246.329 250.65 246.626 250.64 246.913 250.62C248.991 250.5 250.762 252.09 250.891 254.18C250.891 254.26 250.891 254.34 250.891 254.41C250.891 256.4 249.357 258.08 247.358 258.2C247.021 258.22 246.675 258.24 246.339 258.25L245.745 258.28C245.181 258.31 244.636 258.21 244.142 258.01C243.657 258.26 243.112 258.41 242.538 258.43C242.073 258.44 241.608 258.45 241.143 258.46H240.499C240.015 258.49 239.569 258.39 239.144 258.24C238.718 258.41 238.253 258.5 237.768 258.5L237.738 258.49Z" fill="white"/>
<path fill-rule="evenodd" clip-rule="evenodd" d="M24.6302 85.76C-12.1068 112.52 7.27116 157.09 24.6203 116.31C37.0507 87.07 42.8205 72.51 24.6302 85.76Z" fill="#002D66"/>
<path fill-rule="evenodd" clip-rule="evenodd" d="M51.1834 53.53C29.5292 56.87 26.5998 79.63 43.7014 66.3C55.9735 56.74 61.9116 51.89 51.1834 53.53Z" fill="#002D66"/>
<path d="M359.993 168.11C360.013 168.03 360.033 167.95 360.063 167.87C360.043 167.95 360.013 168.03 359.993 168.11ZM359.964 168.21C359.964 168.21 359.984 168.14 359.993 168.1C359.984 168.13 359.974 168.17 359.964 168.21ZM359.924 168.36C359.924 168.36 359.954 168.26 359.964 168.22C359.954 168.27 359.934 168.32 359.924 168.36ZM359.855 168.61C359.855 168.61 359.865 168.57 359.875 168.55C359.875 168.57 359.875 168.59 359.855 168.61ZM353.462 186.15C336.063 221.76 299.039 249.64 251.861 254.05C238.837 255.26 226.149 254.75 214.085 252.73C196.152 261.82 176.111 268.7 156.703 272.72C173.805 277.73 192.777 279.82 212.551 278.31C212.581 278.31 212.6 278.33 212.63 278.33C213.095 278.28 213.56 278.23 214.025 278.18C214.491 278.14 214.956 278.11 215.421 278.06C225.476 277.12 235.175 275.3 244.399 272.71C302.147 257.51 346.217 217.19 359.855 168.61C358.172 174.59 356.035 180.45 353.462 186.14V186.15Z" fill="#FFEC00"/>
<path d="M52.2622 222.34C52.6778 212.06 55.5875 200.9 61.0307 189.21C69.443 171.13 83.16 153.68 99.658 140.09C100.539 139.36 101.429 138.65 102.33 137.95C103.023 137.41 103.716 136.88 104.408 136.36C104.478 136.31 104.547 136.26 104.616 136.21C116.295 127.45 128.567 121.22 140.383 117.98C145.52 116.49 150.567 115.51 155.397 115.12C155.466 115.12 155.516 115.12 155.585 115.11C155.357 115.14 155.139 115.17 154.912 115.2C157.356 114.84 159.821 114.89 162.255 115.41C176.507 118.44 180.832 128.66 179.199 147.94C179.159 148.36 179.129 148.76 179.08 149.17V149.19C179.08 149.19 179.08 149.28 179.07 149.32C179.03 149.73 178.981 150.12 178.941 150.52C174.31 194.32 182.187 203.42 201.516 200.36C227.06 196.32 225.625 176.31 215.075 170.05C202.001 162.28 195.449 157.46 195.132 149.75C194.311 129.99 231.77 120.38 221.042 97.18C218.736 92.2 209.453 89.4 196.34 89.4C149.815 89.4 55.0432 124.59 52.2523 222.36L52.2622 222.34Z" fill="url(#paint0_linear_285_16)"/>
<path d="M155.417 115.11C137.602 116.55 116.859 125.93 99.6679 140.09C83.1699 153.68 69.443 171.13 61.0406 189.21C48.442 216.3 49.3525 240.55 63.6237 257.5C76.3015 272.56 101.618 279.14 134.9 276.03C252.791 261.59 270.754 198.15 270.754 198.15C259.749 223.32 235.779 240.29 209.394 242.76C190.808 244.49 172.33 238.97 157.366 227.2C140.482 213.92 126.844 195.4 125.212 173.77C124.341 162.29 124.281 150.65 128.636 140.75C133.416 126.54 144.322 116.4 155.595 115.1C155.535 115.1 155.476 115.1 155.407 115.11H155.417Z" fill="url(#paint1_linear_285_16)"/>
<path d="M182.791 56.5899C182.791 56.5899 182.752 56.5899 182.722 56.6099C196.29 54.2699 208.315 53.3899 216.42 53.8799C264.371 56.7999 289.657 93.0199 247.774 133.78C233.888 147.3 286.797 154.2 270.744 198.15C270.744 198.15 261.896 229.38 215.876 253.01C227.396 254.78 239.48 255.2 251.861 254.04C299.039 249.63 336.063 221.76 353.462 186.14C359.598 172.55 363.279 158.07 364.091 143.12C364.16 141.81 364.21 140.51 364.229 139.2C364.229 138.97 364.229 138.73 364.239 138.5C364.239 137.8 364.239 137.09 364.239 136.39C364.19 135.2 364.101 134.03 363.992 132.86C363.962 132.5 363.913 132.14 363.873 131.78C363.784 130.96 363.685 130.15 363.566 129.34C363.507 128.95 363.447 128.56 363.388 128.17C363.25 127.35 363.101 126.53 362.933 125.72C362.864 125.4 362.814 125.07 362.735 124.76C362.487 123.64 362.22 122.54 361.923 121.44C361.884 121.3 361.834 121.15 361.795 121.01C361.527 120.06 361.231 119.12 360.924 118.18C360.815 117.84 360.696 117.51 360.577 117.17C360.31 116.42 360.033 115.67 359.746 114.92C359.608 114.58 359.479 114.24 359.34 113.9C359.004 113.09 358.657 112.28 358.281 111.48C358.172 111.25 358.083 111.02 357.975 110.79C357.49 109.76 356.975 108.74 356.441 107.74C356.351 107.57 356.243 107.4 356.154 107.23C355.698 106.4 355.233 105.58 354.748 104.77C354.58 104.48 354.402 104.2 354.224 103.91C353.778 103.2 353.323 102.48 352.848 101.78C352.67 101.51 352.492 101.24 352.314 100.97C351.73 100.13 351.136 99.2899 350.522 98.4699C350.453 98.3699 350.384 98.2799 350.305 98.1799C349.582 97.2299 348.84 96.2899 348.078 95.3699C347.959 95.2199 347.83 95.0699 347.702 94.9199C347.068 94.1599 346.415 93.4199 345.752 92.6799C345.554 92.4599 345.346 92.2399 345.148 92.0199C344.505 91.3199 343.842 90.6299 343.169 89.9499C342.991 89.7699 342.823 89.5899 342.644 89.4099C340.903 87.6799 339.072 85.9899 337.162 84.3699C337.033 84.2599 336.904 84.1599 336.776 84.0499C335.944 83.3499 335.093 82.6599 334.232 81.9799C334.044 81.8299 333.846 81.6799 333.658 81.5299C332.777 80.8399 331.867 80.1599 330.956 79.4999C330.847 79.4199 330.729 79.3399 330.62 79.2499C328.482 77.7099 326.265 76.2299 323.969 74.7999C323.87 74.7399 323.771 74.6799 323.672 74.6199C322.623 73.9799 321.564 73.3399 320.485 72.7199C320.347 72.6399 320.208 72.5599 320.07 72.4799C316.477 70.4299 312.726 68.5199 308.827 66.7499C308.777 66.7299 308.728 66.6999 308.669 66.6799C307.402 66.1099 306.125 65.5599 304.829 65.0099C304.769 64.9899 304.71 64.9599 304.651 64.9399C300.593 63.2399 296.397 61.6999 292.082 60.3099C292.072 60.3099 292.052 60.3099 292.042 60.2999C286.252 58.4299 280.245 56.8299 274.089 55.5199C260.313 52.5899 245.745 51.0599 230.959 51.0599C214.896 51.0599 198.596 52.8599 182.801 56.5999L182.791 56.5899Z" fill="url(#paint2_linear_285_16)"/>
<path d="M187.601 4.67004C113.424 11.6 44.4437 58.89 39.6239 117.13C38.5452 130.2 48.6498 135.47 64.7321 120.93C99.8757 89.15 135.405 69.9 169.134 60.08C173.874 58.65 178.427 57.5 182.791 56.59C265.222 37.06 361.597 70.39 364.249 136.39C364.249 136.01 364.249 135.64 364.249 135.27C364.249 134.93 364.249 134.6 364.229 134.26C364.21 133.25 364.17 132.24 364.12 131.22C364.101 130.87 364.091 130.52 364.071 130.18C363.992 128.86 363.903 127.53 363.784 126.2C360.756 93.14 343.961 64.12 318.447 42.65C316.626 41.11 314.755 39.62 312.845 38.17C308.075 34.53 303.027 31.14 297.752 28.02C295.644 26.77 293.497 25.57 291.31 24.4C290.221 23.82 289.122 23.25 288.004 22.69C281.344 19.34 274.356 16.39 267.112 13.88C264.697 13.04 262.253 12.26 259.778 11.52C242.954 6.50004 224.853 3.79004 206.039 3.79004C199.952 3.79004 193.796 4.07004 187.581 4.65004L187.601 4.67004Z" fill="#002F6A"/>
<defs>
<linearGradient id="paint0_linear_285_16" x1="137.622" y1="89.38" x2="137.622" y2="222.34" gradientUnits="userSpaceOnUse">
<stop stop-color="#D20819"/>
<stop offset="0.4" stop-color="#C50D1B"/>
<stop offset="1" stop-color="#B7141E"/>
</linearGradient>
<linearGradient id="paint1_linear_285_16" x1="161.473" y1="276.78" x2="161.473" y2="115.1" gradientUnits="userSpaceOnUse">
<stop stop-color="#FBB200"/>
<stop offset="0.64" stop-color="#F38D00"/>
<stop offset="1" stop-color="#F17F00"/>
</linearGradient>
<linearGradient id="paint2_linear_285_16" x1="273.485" y1="254.69" x2="273.485" y2="51.0499" gradientUnits="userSpaceOnUse">
<stop stop-color="#B1C900"/>
<stop offset="0.17" stop-color="#71B845"/>
<stop offset="0.34" stop-color="#37AA84"/>
<stop offset="0.46" stop-color="#14A1AB"/>
<stop offset="0.53" stop-color="#079EBA"/>
<stop offset="0.63" stop-color="#0386B4"/>
<stop offset="0.73" stop-color="#0176B0"/>
<stop offset="0.85" stop-color="#006CAE"/>
<stop offset="1" stop-color="#0069AE"/>
</linearGradient>
</defs>
</svg>
