<svg width="409" height="408" viewBox="0 0 409 408" fill="none" xmlns="http://www.w3.org/2000/svg">
<path d="M401.237 190.137L355.271 58.3947C343.103 23.4678 310.998 0 275.383 0H132.634C97.002 0 64.9318 23.4678 52.7899 58.3769L6.9053 190.137C2.37117 203.14 0.0812722 216.745 0.0864735 230.616L0.0931248 248.355C0.10396 277.251 13.6285 302.723 34.1876 318.918C34.1876 319.06 34.1197 319.166 34.1197 319.308L34.133 354.785C34.144 384.124 57.035 408 85.153 408C113.271 408 136.144 384.124 136.133 354.785L136.126 337.047H272.126L272.133 354.785C272.144 384.124 295.035 408 323.153 408C351.271 408 374.144 384.124 374.133 354.785L374.12 319.308C374.12 319.166 374.052 319.06 374.052 318.918C394.616 302.723 408.104 277.251 408.093 248.355L408.086 230.616C408.081 216.745 405.764 203.14 401.237 190.137ZM84.7204 70.51C92.0226 49.561 111.261 35.4945 132.63 35.4945H275.362C296.731 35.4945 315.998 49.561 323.298 70.5277L348.213 141.925H59.8592L84.7204 70.51ZM102.133 354.785C102.137 364.559 94.5237 372.523 85.1397 372.523C75.7557 372.523 68.1367 364.559 68.133 354.785L68.1257 335.255C73.6171 336.426 79.3124 337.047 85.1264 337.047H102.126L102.133 354.785ZM340.133 354.785C340.137 364.559 332.524 372.523 323.14 372.523C313.756 372.523 306.137 364.559 306.133 354.785L306.126 337.047H323.126C328.94 337.047 334.635 336.426 340.126 335.255L340.133 354.785ZM323.113 301.57H272.113L272.106 283.831C272.103 274.04 264.501 266.093 255.1 266.093H153.1C143.699 266.093 136.103 274.04 136.106 283.831L136.113 301.57H85.1131C56.9951 301.57 34.1041 277.694 34.0931 248.355H68.0931C77.4941 248.355 85.0901 240.408 85.0865 230.616C85.0828 220.825 77.4808 212.878 68.0798 212.878H36.1368C36.8835 209.313 37.6471 205.729 38.8528 202.271L47.5135 177.401H360.62L369.299 202.271C370.507 205.729 371.273 209.295 372.023 212.878H340.08C330.679 212.878 323.083 220.825 323.086 230.616C323.09 240.408 330.692 248.355 340.093 248.355H374.093C374.104 277.694 351.231 301.57 323.113 301.57Z" fill="url(#paint0_linear_389_4)"/>
<defs>
<linearGradient id="paint0_linear_389_4" x1="98.1305" y1="3.40485" x2="392.168" y2="394.369" gradientUnits="userSpaceOnUse">
<stop stop-color="#93A5CD"/>
<stop offset="0.391457" stop-color="#223359"/>
</linearGradient>
</defs>
</svg>
