<svg width="410" height="409" viewBox="0 0 410 409" fill="none" xmlns="http://www.w3.org/2000/svg">
<path d="M375.07 98.2121L375.052 34.6809C375.049 25.2796 367.443 17.6803 358.037 17.6803C348.63 17.6803 341.028 25.2796 341.031 34.6809L341.043 75.1253L252.521 15.4362C223.615 -4.04645 186.261 -4.04645 157.366 15.4362L38.3342 95.747C14.8646 111.558 0.855705 137.891 0.863876 166.214L0.90937 323.912C0.922891 370.782 39.0879 408.915 85.9852 408.915H324.129C371.026 408.915 409.169 370.782 409.156 323.912L409.11 166.214C409.102 139.337 396.44 114.21 375.07 98.2121ZM375.135 323.912C375.143 352.031 352.254 374.914 324.119 374.914H85.9754C57.8404 374.914 34.938 352.031 34.9299 323.912L34.8844 166.214C34.8795 149.231 43.278 133.42 57.3598 123.951L176.408 43.6402C185.082 37.775 195.015 34.8509 204.949 34.8509C214.883 34.8509 224.818 37.775 233.495 43.6402L352.607 123.951C366.677 133.437 375.085 149.231 375.09 166.214L375.135 323.912Z" fill="url(#paint0_linear_389_5)"/>
<defs>
<linearGradient id="paint0_linear_389_5" x1="63.2406" y1="52.7597" x2="408.737" y2="401.598" gradientUnits="userSpaceOnUse">
<stop stop-color="#93A5CD"/>
<stop offset="0.504808" stop-color="#223359"/>
</linearGradient>
</defs>
</svg>
