<svg width="409" height="409" viewBox="0 0 409 409" fill="none" xmlns="http://www.w3.org/2000/svg">
<path d="M384.568 90.1134C369.979 82.5824 352.589 83.8574 339.23 93.3944C338.431 93.9554 289.263 138.342 289.263 138.342L289.26 128.907C289.256 113.046 280.632 98.4264 266.775 90.7424C252.918 83.0754 235.952 83.4834 222.49 91.8984C221.827 92.3064 153.282 144.343 153.282 144.343L153.253 49.7724C163.146 46.2704 170.249 36.8354 170.246 25.7344C170.242 11.6414 158.814 0.234375 144.738 0.234375L25.7212 0.234375C11.6452 0.234375 0.224673 11.6414 0.228975 25.7344C0.232363 36.8354 7.34124 46.2704 17.2363 49.7724L17.3172 314.734C17.3329 366.295 59.3017 408.234 110.846 408.234H314.846C366.39 408.234 408.333 366.295 408.317 314.734L408.26 128.907C408.255 112.485 399.19 97.6104 384.568 90.0964L384.568 90.1134ZM357.317 314.734C357.324 338.16 338.273 357.234 314.83 357.234H110.83C87.3872 357.234 68.3243 338.16 68.3172 314.734L68.2368 51.2344H102.237L102.312 297.734C102.316 311.827 113.744 323.234 127.82 323.234C141.896 323.234 153.316 311.827 153.312 297.734L153.285 208.382L238.265 143.833L238.281 195.734C238.284 205.815 244.237 214.944 253.435 219.041C262.667 223.138 273.411 221.438 280.889 214.672L357.266 145.635L357.317 314.734ZM238.309 289.234L238.315 306.234C238.317 315.618 230.704 323.234 221.32 323.234H204.32C194.936 323.234 187.317 315.618 187.315 306.234L187.309 289.234C187.307 279.85 194.92 272.234 204.304 272.234H221.304C230.688 272.234 238.307 279.85 238.309 289.234ZM289.304 272.234H306.304C315.688 272.234 323.307 279.85 323.309 289.234L323.315 306.234C323.317 315.618 315.704 323.234 306.32 323.234H289.32C279.936 323.234 272.317 315.618 272.315 306.234L272.309 289.234C272.307 279.85 279.92 272.234 289.304 272.234Z" fill="url(#paint0_linear_389_6)"/>
<defs>
<linearGradient id="paint0_linear_389_6" x1="-51.4446" y1="-17.0474" x2="133.304" y2="389.619" gradientUnits="userSpaceOnUse">
<stop stop-color="#93A5CD"/>
<stop offset="0.605742" stop-color="#304167"/>
</linearGradient>
</defs>
</svg>
