<svg width="713" height="284" viewBox="0 0 713 284" fill="none" xmlns="http://www.w3.org/2000/svg">
<path fill-rule="evenodd" clip-rule="evenodd" d="M679.097 97.64V90.56C676.047 90.65 672.997 90.68 669.937 90.68C665.107 90.68 660.017 89.82 656.007 86.95C652.717 84.6 650.647 81.25 649.867 77.3C648.857 72.14 650.207 65.58 653.097 61.16C654.247 59.41 656.197 58.54 658.277 58.86C663.357 59.65 668.477 60.15 673.607 60.46C682.927 61.02 692.427 60.95 701.747 60.23C707.777 59.58 712.217 63.56 712.217 69.66V106.69C712.217 110.59 710.807 113.8 708.027 116.55C693.657 130.76 675.817 136.84 655.907 136.84C634.147 136.84 613.637 128.32 600.107 110.93C590.627 98.75 585.907 83.8 585.907 68.42C585.907 54.27 589.897 40.47 598.047 28.85C611.807 9.23 634.127 0 657.657 0C671.397 0 688.027 2.56 699.257 11.07C702.587 13.59 704.757 17.06 705.227 21.23C705.657 25.02 704.597 28.84 702.797 32.16C700.547 36.32 696.367 40.96 691.777 42.49C689.897 43.12 687.947 42.69 686.507 41.31C679.577 34.71 668.577 31.87 659.227 31.87C647.137 31.87 635.197 35.46 627.767 45.56C622.907 52.16 620.937 60.3 620.937 68.4C620.937 76.95 623.147 85.56 628.517 92.36C635.727 101.49 646.687 104.94 657.997 104.94C665.237 104.94 673.767 102.93 679.087 97.63L679.097 97.64ZM443.657 32.57V51.76H458.777C462.477 51.76 468.777 51.39 471.267 48.11C472.557 46.41 472.847 43.98 472.847 41.9C472.847 40.01 472.557 37.89 471.407 36.33C468.927 32.98 462.517 32.58 458.777 32.58H443.657V32.57ZM464.197 81.72H443.667V102.84H464.297C468.177 102.89 474.117 102.48 476.777 99.16C478.277 97.27 478.647 94.62 478.647 92.28C478.647 90.07 478.357 87.41 476.987 85.59C474.447 82.22 468.007 81.77 464.197 81.73V81.72ZM541.967 0.69H557.057C562.937 0.69 567.027 4.78 567.027 10.66V124.04C567.027 129.91 562.927 134.01 557.057 134.01H541.967C536.087 134.01 531.987 129.91 531.987 124.04V10.66C531.987 4.78 536.087 0.69 541.967 0.69ZM497.337 63.72C507.667 69.69 514.397 80.14 514.397 92.98C514.397 101.75 512.087 110.12 506.647 117.1C496.587 130.02 479.307 134.02 463.697 134.02H418.597C412.717 134.02 408.627 129.92 408.627 124.05V10.66C408.627 4.78 412.727 0.69 418.597 0.69H463.697C472.417 0.69 481.337 2.21 489.117 6.29C495.727 9.77 501.107 14.91 504.547 21.57C507.317 26.95 508.607 32.89 508.607 38.92C508.607 48.7 504.367 57.56 497.347 63.72H497.337Z" fill="white"/>
<path fill-rule="evenodd" clip-rule="evenodd" d="M483.887 92.27C483.887 81.91 478.447 76.65 464.227 76.48H438.427V108.07H464.227C477.737 108.25 483.887 102.8 483.887 92.27ZM438.427 27.34V57H458.787C472.477 57 478.087 51.91 478.087 41.91C478.087 31.91 472.117 27.34 458.787 27.34H438.427ZM509.157 92.98C509.157 116.5 490.727 128.78 463.697 128.78H418.597C415.617 128.78 413.857 127.02 413.857 124.04V10.66C413.857 7.68001 415.617 5.92001 418.597 5.92001H463.697C490.027 5.92001 503.357 20.66 503.357 38.92C503.357 50.5 496.337 60.33 485.977 64.72C499.667 68.23 509.147 78.94 509.147 92.98H509.157Z" fill="#E30016"/>
<path d="M10.5771 137.28C10.3871 137.28 10.1971 137.28 10.0071 137.26C5.77708 137 2.34707 133.73 0.847075 128.52C-1.97292 118.74 1.50707 98.64 22.6671 83.39C29.2971 78.61 34.4671 76.03 38.1471 78.97C43.2471 83.06 39.6171 92.33 28.3671 118.52C21.7671 133.88 15.1471 137.28 10.5771 137.28ZM32.6571 86.03C31.5171 86.6 29.7471 87.65 27.1071 89.55C9.25707 102.42 6.00707 118.99 8.14707 126.41C8.69707 128.31 9.63707 129.62 10.4771 129.67C12.1171 129.73 16.4671 126.94 21.3771 115.51C25.7971 105.22 31.6271 91.64 32.6571 86.02V86.03Z" fill="white"/>
<path d="M35.5871 74.97C34.2671 74.97 33.0771 74.64 32.0371 73.99C29.7371 72.55 28.7471 69.82 29.3871 66.69C30.7171 60.24 38.7971 52.37 51.1471 50.48C53.9471 50.05 59.1471 49.26 60.7971 53.13C62.6771 57.52 58.2671 60.92 46.4771 70.01C42.1971 73.31 38.5571 74.97 35.5871 74.97ZM48.3771 58.88C42.0571 60.8 38.5371 64.5 37.2971 66.86C38.3471 66.39 39.8571 65.53 41.8371 64C43.8071 62.48 46.2271 60.62 48.3771 58.88Z" fill="white"/>
<path d="M52.7471 229.8C51.3071 229.8 50.0571 229 49.4071 227.82C49.1371 227.32 48.9771 226.74 48.9571 226.14C48.9571 226.13 48.9571 226.11 48.9571 226.1C48.9571 226.07 48.9571 226.05 48.9571 226.02V225.89C48.9571 223.79 50.6571 222.09 52.7571 222.09C54.8571 222.09 56.5071 223.74 56.5571 225.8C56.5571 225.87 56.5571 225.94 56.5571 226.01C56.5571 226.41 56.4971 226.8 56.3771 227.18C55.8871 228.71 54.4571 229.82 52.7571 229.82L52.7471 229.8Z" fill="white"/>
<path d="M201.937 283.3C186.777 283.3 172.017 281.28 157.917 277.25C151.047 278.54 143.967 279.63 136.757 280.5C136.717 280.5 136.687 280.5 136.647 280.51C101.747 283.74 75.0171 276.69 61.3771 260.66C52.7271 250.49 48.4471 237.49 48.9971 223.05C48.9971 223.01 48.9971 222.97 48.9971 222.93C50.5971 167.39 81.3371 134.55 106.847 116.78C139.157 94.27 176.347 86.28 198.387 86.28C207.257 86.28 222.737 87.58 226.797 96.25C234.037 111.75 222.747 122.43 213.687 131.01C206.997 137.34 200.687 143.32 200.977 150.27C201.217 155.96 206.557 160 219.257 167.46C225.847 171.33 229.457 179.26 228.037 186.73C227.197 191.17 223.177 201.82 204.217 204.79C198.247 205.72 189.597 206.29 183.497 200.48C176.007 193.35 174.077 178.49 177.037 150.79C177.087 150.37 177.127 149.99 177.167 149.6C177.167 149.54 177.167 149.49 177.177 149.44C177.217 149.06 177.257 148.68 177.287 148.29C179.077 127.41 173.207 121.91 163.177 119.8C161.297 119.41 159.327 119.34 157.307 119.61C147.337 120.93 137.797 130.19 133.567 142.65C133.527 142.76 133.487 142.87 133.437 142.97C129.287 152.28 129.477 163.46 130.287 174.16C131.677 192.37 142.697 210.38 161.317 224.88C175.667 236.05 193.377 241.3 211.197 239.66C236.987 237.28 259.517 221.09 270.027 197.41C278.777 173.56 265.377 162.25 254.607 153.15C248.877 148.31 244.347 144.48 244.177 139.32C244.087 136.62 245.277 134.07 247.707 131.72C264.797 115.26 271.397 98.54 266.277 84.66C260.827 69.88 242.497 59.8 218.437 58.35C210.207 57.85 198.127 58.83 185.267 61.03C180.917 61.93 176.447 63.07 171.957 64.4C135.777 74.83 100.787 95.02 67.9171 124.44C54.8771 136.11 46.6971 134.75 42.9871 132.9C38.0771 130.46 35.6171 124.84 36.2271 117.5C38.6271 88.82 56.3871 61.03 86.2571 39.27C114.837 18.48 151.397 5.09002 189.207 1.59002C195.497 1.01002 201.887 0.710022 208.207 0.710022C227.237 0.710022 245.867 3.36002 263.577 8.59002C266.127 9.34002 268.667 10.16 271.137 11C278.547 13.54 285.807 16.56 292.707 20C293.857 20.57 294.987 21.15 296.117 21.74C298.467 22.98 300.707 24.22 302.787 25.45C308.227 28.63 313.477 32.13 318.397 35.85C320.367 37.33 322.317 38.88 324.197 40.45C351.587 63.26 368.327 93.84 371.357 126.56C371.477 127.84 371.577 129.18 371.657 130.67L371.707 131.76C371.757 132.8 371.797 133.84 371.817 134.88L371.837 135.93C371.837 136.2 371.837 136.47 371.837 136.73V137.09C371.837 137.79 371.837 138.52 371.837 139.25V139.97C371.797 141.35 371.747 142.7 371.677 143.99C371.677 144 371.677 144.02 371.677 144.03C371.197 152.76 369.727 161.53 367.317 170.11C367.297 170.19 367.277 170.26 367.257 170.34C367.227 170.45 367.197 170.55 367.157 170.66L367.127 170.76C367.127 170.77 367.127 170.78 367.117 170.8C366.687 172.28 366.287 173.61 365.877 174.87L365.847 174.96C365.437 176.23 364.967 177.57 364.417 179.08L364.287 179.46C364.287 179.46 364.267 179.52 364.257 179.55C364.257 179.55 364.257 179.55 364.257 179.56C364.257 179.56 364.237 179.6 364.237 179.62L364.127 179.9C363.647 181.18 363.147 182.45 362.637 183.72L362.527 183.99C362.527 183.99 362.507 184.03 362.497 184.06C362.497 184.06 362.477 184.11 362.467 184.14L362.257 184.64C361.727 185.91 361.187 187.17 360.617 188.42C360.597 188.46 360.577 188.5 360.557 188.54C360.557 188.54 360.557 188.55 360.557 188.56C341.327 230.63 299.227 263.72 247.917 277.09C238.257 279.77 228.187 281.61 218.027 282.55L215.237 282.81C215.047 282.83 214.867 282.83 214.677 282.82C210.407 283.13 206.157 283.29 201.947 283.29L201.937 283.3ZM168.627 272.13C183.327 275.38 198.707 276.42 214.477 275.23C214.607 275.23 214.727 275.22 214.857 275.23L217.317 275.01C227.017 274.12 236.647 272.36 245.927 269.78C295.137 256.96 335.387 225.41 353.657 185.35C353.677 185.31 353.697 185.27 353.717 185.23C353.717 185.23 353.717 185.23 353.717 185.21C354.237 184.06 354.737 182.9 355.227 181.73L355.287 181.59C355.287 181.59 355.317 181.52 355.327 181.49L355.547 180.97C355.547 180.97 355.567 180.92 355.577 180.89V180.85C356.077 179.67 356.547 178.47 356.997 177.27V177.24C356.997 177.24 357.027 177.19 357.037 177.16L357.237 176.61C357.237 176.61 357.257 176.57 357.267 176.54L357.287 176.49C357.807 175.07 358.247 173.8 358.627 172.63C359.037 171.35 359.427 170.09 359.827 168.69C362.187 160.45 363.627 152.04 364.087 143.67C364.087 143.66 364.087 143.65 364.087 143.64C364.157 142.38 364.197 141.12 364.227 139.85V139.16C364.247 138.5 364.247 137.81 364.237 137.14V136.73V135.76C364.167 135.52 364.117 135.27 364.097 135.01V134.99L364.077 134.72C364.077 134.72 364.077 134.7 364.077 134.69C364.037 134.25 363.997 133.81 363.947 133.36C363.947 133.28 363.937 133.21 363.927 133.13C363.917 133.05 363.897 132.97 363.887 132.88C363.777 131.88 363.647 130.9 363.497 129.96C363.487 129.89 363.477 129.82 363.467 129.75C363.467 129.7 363.457 129.65 363.447 129.6C363.447 129.57 363.437 129.54 363.427 129.51C363.407 129.42 363.397 129.33 363.377 129.23C363.257 128.55 363.127 127.87 362.987 127.2L362.897 126.76C362.877 126.66 362.857 126.55 362.837 126.45C362.797 126.28 362.767 126.11 362.727 125.94C362.517 125.03 362.287 124.11 362.047 123.22C362.027 123.15 362.007 123.09 361.997 123.02C361.957 122.91 361.917 122.8 361.887 122.69C361.777 122.31 361.667 121.94 361.547 121.56C361.347 120.91 361.137 120.26 360.907 119.61C360.857 119.47 360.807 119.32 360.757 119.18V119.16C360.507 118.46 360.247 117.77 359.977 117.08C359.907 116.9 359.847 116.72 359.807 116.54C359.717 116.38 359.627 116.22 359.557 116.05C359.257 115.34 358.947 114.63 358.627 113.93C358.607 113.89 358.597 113.86 358.577 113.82C358.517 113.69 358.467 113.56 358.417 113.43C358.357 113.34 358.307 113.24 358.267 113.14C358.147 112.88 358.017 112.62 357.887 112.36C357.547 111.66 357.187 110.97 356.817 110.29C356.817 110.27 356.797 110.25 356.787 110.24C356.767 110.21 356.747 110.18 356.727 110.14L356.547 109.82C356.307 109.39 356.067 108.96 355.827 108.54C355.577 108.11 355.307 107.67 355.027 107.21C354.967 107.1 354.907 106.99 354.847 106.88C354.767 106.78 354.697 106.68 354.637 106.58C354.397 106.2 354.157 105.82 353.907 105.44C353.807 105.29 353.707 105.14 353.617 104.99C353.537 104.87 353.457 104.75 353.377 104.63L353.247 104.44C353.247 104.44 353.237 104.42 353.227 104.42C353.227 104.42 353.217 104.4 353.207 104.4C353.137 104.3 353.077 104.2 353.027 104.09C352.947 104 352.867 103.9 352.797 103.8C352.597 103.52 352.407 103.24 352.207 102.96C351.887 102.51 351.547 102.06 351.217 101.61C351.217 101.61 351.217 101.6 351.207 101.59C351.147 101.51 351.087 101.42 351.027 101.33C350.987 101.28 350.947 101.23 350.907 101.18C350.237 100.31 349.537 99.43 348.817 98.57C348.777 98.52 348.737 98.47 348.697 98.42C348.657 98.38 348.627 98.34 348.587 98.3C348.567 98.28 348.487 98.19 348.477 98.17C347.807 97.38 347.187 96.68 346.557 95.98C346.457 95.87 346.357 95.75 346.267 95.62C346.147 95.52 346.037 95.41 345.927 95.3C345.327 94.66 344.707 94.02 344.087 93.39C343.987 93.29 343.887 93.18 343.797 93.07C343.697 92.99 343.607 92.9 343.507 92.81C342.327 91.64 341.107 90.51 339.877 89.42C339.337 88.94 338.787 88.47 338.237 88.01C338.217 87.99 338.197 87.97 338.177 87.96C338.157 87.95 338.137 87.93 338.117 87.92L337.857 87.71C337.027 87.02 336.207 86.36 335.367 85.71C335.167 85.55 334.997 85.42 334.827 85.29C333.937 84.6 333.057 83.95 332.177 83.32L331.847 83.08C331.107 82.55 330.347 82.02 329.587 81.51C328.267 80.62 326.877 79.72 325.457 78.85C325.407 78.82 325.347 78.78 325.297 78.75C325.227 78.71 325.157 78.67 325.087 78.63C325.077 78.63 325.067 78.62 325.057 78.61C324.057 78 323.037 77.4 322.007 76.81C321.867 76.73 321.737 76.64 321.607 76.55L321.587 76.58C321.527 76.54 321.457 76.51 321.397 76.47C320.577 76.01 319.767 75.56 318.947 75.13C318.927 75.13 318.907 75.11 318.897 75.1C318.887 75.1 318.867 75.09 318.857 75.08C318.807 75.05 318.747 75.02 318.697 74.99C317.867 74.55 317.027 74.11 316.187 73.69C316.177 73.69 316.167 73.68 316.147 73.67C316.117 73.66 316.087 73.64 316.067 73.63C315.917 73.55 315.757 73.47 315.597 73.4C314.887 73.05 314.167 72.7 313.447 72.35C313.397 72.33 313.357 72.31 313.317 72.28C313.267 72.26 313.217 72.24 313.167 72.21C312.467 71.88 311.777 71.55 311.067 71.23C310.917 71.16 310.777 71.1 310.627 71.03C310.567 71 310.497 70.97 310.437 70.94C310.367 70.91 310.297 70.89 310.237 70.86C310.237 70.86 310.217 70.86 310.207 70.85C309.027 70.32 307.827 69.81 306.617 69.31C306.577 69.29 306.537 69.28 306.507 69.26C306.467 69.25 306.437 69.23 306.407 69.22C305.887 69.01 305.367 68.79 304.837 68.58C304.407 68.41 303.967 68.23 303.527 68.06C303.507 68.06 303.487 68.05 303.467 68.04C303.437 68.03 303.407 68.02 303.377 68C303.347 67.99 303.307 67.98 303.277 67.96C302.317 67.59 301.337 67.22 300.367 66.86C300.347 66.86 300.317 66.84 300.297 66.83C300.267 66.83 300.247 66.81 300.217 66.8C299.207 66.43 298.197 66.07 297.177 65.73L297.117 65.71C296.877 65.63 296.637 65.55 296.397 65.47C295.597 65.2 294.797 64.94 293.987 64.68C293.977 64.68 293.967 64.68 293.947 64.67C288.217 62.84 282.237 61.27 276.177 59.99C267.747 58.21 258.967 56.96 250.097 56.27C250.087 56.27 250.067 56.27 250.057 56.27C249.987 56.27 249.927 56.26 249.857 56.25C249.827 56.25 249.807 56.25 249.777 56.25C249.747 56.25 249.717 56.25 249.687 56.25C249.617 56.25 249.547 56.25 249.487 56.23C249.167 56.21 248.847 56.18 248.517 56.16C247.007 56.05 245.497 55.96 243.977 55.89C258.517 61.25 269.127 70.45 273.437 82.13C279.667 99.02 272.407 118.61 253.017 137.29C252.237 138.04 251.797 138.73 251.807 139.17C251.867 140.95 256.127 144.55 259.547 147.44C270.107 156.36 287.777 171.28 277.197 200.13C277.197 200.14 277.197 200.16 277.187 200.17C277.167 200.23 277.147 200.3 277.127 200.36C277.127 200.39 277.107 200.43 277.097 200.46C277.097 200.49 277.077 200.53 277.067 200.55C277.047 200.6 277.027 200.66 277.007 200.71C276.987 200.77 276.967 200.83 276.947 200.89C276.947 200.89 276.937 200.93 276.927 200.95C276.927 200.97 276.907 201 276.907 201.01C276.877 201.1 276.837 201.19 276.807 201.27C276.777 201.36 276.757 201.45 276.717 201.54L276.657 201.72C276.547 202 276.417 202.26 276.257 202.5C276.207 202.78 276.127 203.06 276.017 203.34L275.907 203.59C275.847 203.73 275.777 203.87 275.697 204C275.657 204.14 275.597 204.29 275.537 204.43L275.437 204.39C275.437 204.39 275.437 204.4 275.427 204.41L275.537 204.46L275.457 204.63C275.367 204.82 275.267 205 275.157 205.16C275.107 205.34 275.037 205.52 274.957 205.7C274.957 205.7 274.957 205.7 274.957 205.71C274.957 205.71 274.957 205.71 274.957 205.72V205.74C274.957 205.74 274.907 205.84 274.907 205.85L274.867 205.93C274.777 206.11 274.677 206.29 274.567 206.45C274.507 206.64 274.437 206.82 274.347 207.01V207.03L274.167 206.94L274.337 207.03L274.297 207.11L274.207 207.29C273.947 207.81 273.577 208.24 273.157 208.57C273.117 209.11 272.967 209.65 272.677 210.15L272.507 210.45C272.357 210.7 272.197 210.93 272.007 211.14C271.917 211.41 271.797 211.68 271.647 211.93L271.307 211.73C271.307 211.73 271.287 211.74 271.277 211.75L271.627 211.96L271.267 211.75C271.267 211.75 271.167 211.81 271.117 211.84C271.097 212.49 270.907 213.15 270.527 213.74L270.427 213.9C270.427 213.9 270.427 213.9 270.427 213.91L270.397 213.96C270.227 214.23 270.017 214.47 269.797 214.69C269.697 214.98 269.557 215.26 269.387 215.53L268.987 215.28L269.387 215.54L269.197 215.82C268.717 216.54 268.027 217.05 267.257 217.31C267.257 218.11 267.027 218.92 266.517 219.61L266.257 219.95C266.007 220.28 265.707 220.56 265.377 220.79C265.247 221.17 265.047 221.54 264.777 221.88C264.757 221.9 264.737 221.93 264.717 221.95C264.427 222.31 264.077 222.61 263.707 222.83C263.557 223.25 263.337 223.66 263.037 224.02L262.897 224.19C262.597 224.54 262.257 224.83 261.877 225.04C261.717 225.45 261.487 225.83 261.177 226.18L260.937 226.45C260.147 227.34 259.027 227.75 257.917 227.72C257.937 227.86 257.937 228.01 257.937 228.15C257.937 229.11 257.567 230.08 256.837 230.82L256.507 231.15C255.547 232.11 254.197 232.45 252.967 232.17C253.187 233.41 252.787 234.74 251.777 235.65L251.517 235.88C251.097 236.26 250.607 236.53 250.097 236.69C249.877 237.17 249.547 237.61 249.117 237.97L248.807 238.23C247.527 239.32 245.737 239.41 244.377 238.59C244.877 240.09 244.397 241.81 243.067 242.82L242.627 243.15C240.947 244.41 238.567 244.06 237.307 242.39C236.967 241.94 236.747 241.43 236.637 240.91C236.387 241.02 236.147 241.13 235.897 241.23C236.417 241.52 236.877 241.93 237.217 242.46C237.647 243.11 237.847 243.83 237.847 244.55C237.847 245.78 237.247 246.99 236.147 247.72L235.757 247.97C235.187 248.35 234.547 248.55 233.907 248.59C233.607 249.16 233.147 249.66 232.557 250.03L232.157 250.28C230.377 251.39 228.037 250.85 226.927 249.07C226.537 248.44 226.347 247.75 226.347 247.06C226.347 246.02 226.777 244.99 227.577 244.26C222.547 245.78 217.327 246.81 211.977 247.31C192.227 249.14 172.607 243.33 156.727 230.96C136.397 215.13 124.337 195.2 122.787 174.83C121.897 163.2 121.737 150.95 126.497 140.13C128.427 134.51 131.307 129.43 134.817 125.18C125.267 128.91 115.587 134.34 106.867 140.92C106.717 141.03 106.567 141.13 106.407 141.22C106.287 141.35 106.147 141.46 106.007 141.58C105.077 142.29 104.157 143.01 103.247 143.75C103.227 143.77 103.207 143.79 103.177 143.8C101.547 145.13 99.1571 144.89 97.8371 143.26C96.5071 141.64 96.7571 139.24 98.3771 137.92C99.2971 137.17 100.227 136.44 101.167 135.71L101.327 135.59C101.347 135.57 101.367 135.56 101.387 135.55C101.537 135.44 101.687 135.35 101.837 135.27C101.977 135.13 102.127 134.99 102.297 134.86L103.557 133.91C115.617 124.96 128.557 118.44 140.937 115.09C140.987 115.07 141.107 115.04 141.217 115.01C141.217 115.01 141.277 115 141.307 114.99C141.807 114.85 142.317 114.81 142.807 114.87C143.197 114.58 143.647 114.36 144.147 114.23L144.477 114.15C144.717 114.09 144.957 114.03 145.187 113.97C145.717 113.85 146.237 113.84 146.737 113.93C147.147 113.64 147.627 113.44 148.157 113.33L148.487 113.26C148.667 113.22 148.847 113.18 149.027 113.15C149.027 113.15 149.037 113.15 149.047 113.15C149.067 113.15 149.087 113.15 149.107 113.14C149.647 113.04 150.177 113.06 150.677 113.18C151.107 112.91 151.597 112.73 152.127 112.65L152.407 112.61C152.597 112.58 152.797 112.55 152.987 112.52C153.417 112.46 153.837 112.48 154.237 112.56C154.947 112.41 155.657 112.28 156.377 112.19C159.247 111.81 162.087 111.9 164.807 112.47C185.047 116.73 186.197 134.25 184.927 149.04C184.897 149.44 184.857 149.84 184.817 150.23C184.817 150.26 184.817 150.28 184.817 150.31L184.797 150.48C184.747 150.91 184.707 151.33 184.657 151.74C182.047 176.12 183.367 189.9 188.807 195.08C191.637 197.78 196.057 198.49 203.107 197.39C213.097 195.82 219.497 191.46 220.637 185.41C221.467 181.03 219.347 176.38 215.467 174.11C202.437 166.45 193.867 160.68 193.447 150.69C193.007 140.28 200.897 132.81 208.527 125.59C218.717 115.95 224.567 109.38 219.977 99.56C218.677 96.78 211.517 93.97 198.457 93.97C161.247 93.97 85.1871 118.06 62.8771 186.37C63.0371 186.42 63.1871 186.48 63.3471 186.55C65.2471 187.44 66.0571 189.71 65.1671 191.6C64.8071 192.37 64.4571 193.14 64.1071 193.91C64.0671 194.01 64.0171 194.11 63.9571 194.21C63.9171 194.32 63.8771 194.44 63.8271 194.55C63.5871 195.11 63.3471 195.66 63.1171 196.21C63.0671 196.34 63.0071 196.46 62.9371 196.58C62.8971 196.72 62.8471 196.86 62.7971 196.99C62.5971 197.49 62.3971 197.99 62.1971 198.49C62.1471 198.63 62.0771 198.77 62.0071 198.89C61.9671 199.03 61.9271 199.18 61.8771 199.32C61.6971 199.79 61.5271 200.26 61.3571 200.74C61.3071 200.89 61.2471 201.03 61.1771 201.17C61.1471 201.32 61.1071 201.46 61.0571 201.6C60.8971 202.07 60.7471 202.52 60.5871 202.98C60.5371 203.13 60.4771 203.28 60.4071 203.42C60.3771 203.56 60.3471 203.7 60.2971 203.84C60.1471 204.32 59.9971 204.79 59.8571 205.27C59.8171 205.41 59.7671 205.55 59.7071 205.68C59.6871 205.8 59.6571 205.93 59.6171 206.05C59.4171 206.73 59.2271 207.41 59.0471 208.09C58.9971 208.28 58.9271 208.47 58.8571 208.64C58.8371 208.85 58.8071 209.05 58.7571 209.26L58.5271 210.19C58.4771 210.4 58.4071 210.6 58.3271 210.79C58.3271 210.98 58.2971 211.17 58.2571 211.37C58.2571 211.39 58.2571 211.42 58.2371 211.44L58.0571 212.25C58.0071 212.47 57.9471 212.68 57.8671 212.88C57.8671 213.1 57.8471 213.32 57.7971 213.55L57.6671 214.27C57.6271 214.5 57.5671 214.72 57.4871 214.94C57.4871 214.97 57.4871 214.99 57.4871 215.02C57.4871 215.22 57.4671 215.42 57.4371 215.62L57.3471 216.23C57.3071 216.48 57.2471 216.72 57.1671 216.94C57.1671 217.02 57.1671 217.09 57.1671 217.17C57.1671 217.33 57.1571 217.5 57.1371 217.67L57.0971 218.01C57.0571 218.36 56.9671 218.69 56.8371 219C56.7671 220.26 56.7071 221.52 56.6671 222.8C56.6671 222.89 56.6671 222.98 56.6671 223.07C56.0971 235.9 59.6571 246.91 67.2271 255.81C79.2071 269.89 103.607 276 135.957 273.02C145.647 271.84 155.117 270.27 164.097 268.33C166.137 267.89 168.147 269.18 168.597 271.21C168.667 271.54 168.697 271.87 168.687 272.19L168.627 272.13ZM208.197 8.31002C202.117 8.31002 195.957 8.59002 189.897 9.16002C153.427 12.53 118.217 25.42 90.7471 45.44C62.6971 65.88 46.0271 91.71 43.8171 118.16C43.4771 122.18 44.4371 125.16 46.3871 126.13C48.9671 127.41 54.6471 126.16 62.8671 118.81C96.5971 88.63 132.587 67.88 169.837 57.14C174.537 55.74 179.277 54.54 183.877 53.59C185.497 53.21 187.217 52.84 189.277 52.41C189.497 52.37 189.717 52.34 189.927 52.33C190.127 52.25 190.347 52.19 190.567 52.14C192.557 51.74 194.337 51.41 196.017 51.12C196.087 51.11 196.167 51.1 196.237 51.09C196.287 51.08 196.347 51.07 196.397 51.06C198.127 50.77 199.857 50.5 201.597 50.24C201.617 50.24 201.637 50.24 201.647 50.24C201.837 50.21 202.057 50.2 202.207 50.2C202.387 50.15 202.577 50.1 202.767 50.08C203.817 49.93 204.837 49.8 205.827 49.67C206.697 49.56 207.547 49.46 208.377 49.36C208.457 49.36 208.537 49.34 208.617 49.34C208.677 49.34 208.737 49.32 208.797 49.32C208.797 49.32 208.857 49.32 208.887 49.31C210.437 49.14 212.037 48.98 213.747 48.83C213.897 48.82 214.057 48.8 214.217 48.79C214.347 48.78 214.487 48.78 214.617 48.78C214.757 48.75 214.887 48.74 215.027 48.72C215.027 48.72 215.047 48.72 215.057 48.72C216.157 48.63 217.257 48.55 218.337 48.47C219.177 48.41 220.007 48.36 220.807 48.32C220.807 48.32 220.817 48.33 220.827 48.32C220.887 48.32 220.947 48.32 221.007 48.32C221.057 48.32 221.107 48.32 221.157 48.31C223.037 48.21 224.967 48.13 226.897 48.07C226.957 48.07 227.017 48.07 227.067 48.07C227.137 48.07 227.207 48.07 227.277 48.06C227.277 48.06 227.337 48.06 227.367 48.06C228.247 48.04 229.127 48.02 230.017 48C231.117 47.98 232.207 47.98 233.277 47.97C233.277 47.97 233.357 47.97 233.407 47.97C233.437 47.97 233.487 47.97 233.497 47.97C235.267 47.97 237.037 47.99 238.807 48.04C238.837 48.04 238.867 48.04 238.887 48.04C238.917 48.04 238.957 48.04 238.987 48.04C239.027 48.04 239.077 48.04 239.127 48.04C239.127 48.04 239.197 48.04 239.227 48.04C242.707 48.13 246.237 48.31 249.727 48.57C249.897 48.58 250.077 48.6 250.247 48.61C250.277 48.61 250.297 48.61 250.327 48.61H250.417C267.447 49.93 283.667 53.14 298.647 58.16C298.657 58.16 298.677 58.16 298.687 58.17C298.987 58.27 299.287 58.37 299.577 58.47C299.597 58.47 299.617 58.48 299.637 58.49C300.697 58.85 301.747 59.22 302.787 59.6C302.817 59.6 302.837 59.62 302.867 59.63L302.947 59.66C303.977 60.04 304.997 60.42 306.007 60.81C306.037 60.82 306.067 60.83 306.097 60.85C306.137 60.86 306.167 60.88 306.197 60.89C306.687 61.08 307.177 61.27 307.667 61.47C308.197 61.68 308.727 61.9 309.257 62.12C309.297 62.14 309.347 62.16 309.387 62.18C309.427 62.19 309.457 62.21 309.497 62.22C309.497 62.22 309.497 62.22 309.507 62.22C310.777 62.75 312.037 63.29 313.287 63.84C313.357 63.87 313.417 63.9 313.487 63.94C313.557 63.97 313.637 64 313.707 64.03C313.707 64.03 313.727 64.04 313.747 64.05C313.877 64.11 314.007 64.17 314.137 64.23C314.887 64.57 315.637 64.92 316.377 65.27C316.377 65.27 316.377 65.27 316.387 65.27C316.437 65.29 316.487 65.32 316.527 65.34C316.577 65.36 316.627 65.38 316.677 65.41C317.447 65.78 318.217 66.15 318.977 66.53C319.137 66.61 319.287 66.69 319.447 66.77C319.457 66.77 319.477 66.78 319.487 66.79C319.517 66.8 319.547 66.82 319.577 66.83C319.577 66.83 319.577 66.83 319.587 66.83C320.527 67.3 321.447 67.78 322.367 68.27C322.377 68.27 322.397 68.28 322.407 68.29C323.377 68.81 324.347 69.34 325.297 69.87L325.277 69.9C325.437 69.96 325.587 70.04 325.737 70.12C325.737 70.12 325.757 70.13 325.767 70.14C326.867 70.77 327.947 71.4 329.017 72.06C329.037 72.07 329.057 72.08 329.067 72.09C329.107 72.12 329.147 72.14 329.187 72.17C329.267 72.21 329.337 72.25 329.407 72.3C329.407 72.3 329.427 72.31 329.437 72.32C331.017 73.29 332.557 74.29 334.057 75.31C334.797 75.81 335.517 76.31 336.217 76.82L336.247 76.84C338.567 78.5 340.797 80.22 342.907 81.98C342.927 82 342.957 82.02 342.977 82.04C343.017 82.07 343.047 82.1 343.077 82.12C343.677 82.62 344.267 83.13 344.857 83.65C346.207 84.84 347.527 86.07 348.797 87.32C348.907 87.43 349.017 87.55 349.107 87.67C349.217 87.76 349.317 87.85 349.417 87.95C350.097 88.63 350.767 89.32 351.417 90.02C351.537 90.15 351.647 90.28 351.737 90.41C351.867 90.52 351.997 90.64 352.107 90.77C352.847 91.58 353.557 92.39 354.257 93.22C354.307 93.27 354.347 93.33 354.387 93.39C354.457 93.46 354.517 93.53 354.587 93.61C354.977 94.08 355.367 94.55 355.737 95.02C348.197 76.72 335.777 59.99 319.257 46.23C317.477 44.74 315.617 43.27 313.747 41.86C309.057 38.32 304.047 34.99 298.867 31.95C296.877 30.78 294.737 29.59 292.497 28.41C291.427 27.85 290.337 27.29 289.237 26.74C282.637 23.45 275.687 20.56 268.587 18.13C266.217 17.32 263.777 16.54 261.337 15.82C244.327 10.8 226.417 8.25002 208.117 8.25002L208.197 8.31002ZM240.217 259.2C240.217 259.2 240.197 259.2 240.177 259.2C239.627 259.2 239.087 259.19 238.547 259.18H237.937C237.507 259.16 237.087 259.08 236.697 258.94C236.297 259.07 235.857 259.13 235.417 259.12C234.797 259.1 234.187 259.07 233.567 259.04L233.017 259.01C232.617 258.99 232.227 258.91 231.877 258.78C231.497 258.88 231.097 258.92 230.687 258.89C229.947 258.84 229.217 258.78 228.487 258.73L228.207 258.71C227.827 258.68 227.467 258.59 227.127 258.46C226.767 258.54 226.387 258.56 225.997 258.52C225.207 258.44 224.427 258.36 223.647 258.27L223.497 258.25C223.127 258.21 222.767 258.12 222.447 257.98C222.087 258.04 221.717 258.05 221.347 258C220.517 257.9 219.697 257.78 218.877 257.66C216.987 257.39 215.617 255.76 215.617 253.9C215.617 253.72 215.627 253.54 215.657 253.36C215.887 251.76 217.087 250.53 218.577 250.19C218.897 249.41 219.477 248.74 220.277 248.31L220.877 247.98C222.717 246.97 225.027 247.65 226.037 249.49C226.287 249.95 226.437 250.43 226.487 250.92C226.567 250.92 226.657 250.94 226.737 250.94C227.097 250.97 227.447 251.06 227.767 251.18C228.117 251.11 228.477 251.08 228.847 251.11L229.127 251.13C229.817 251.19 230.507 251.24 231.207 251.29C231.587 251.31 231.947 251.39 232.287 251.52C232.647 251.43 233.027 251.39 233.417 251.41L233.977 251.44C234.557 251.47 235.127 251.5 235.707 251.52C236.117 251.53 236.507 251.61 236.877 251.74C237.257 251.62 237.677 251.53 238.087 251.56H238.717C239.227 251.58 239.737 251.6 240.247 251.59C240.707 251.59 241.147 251.67 241.557 251.82C241.967 251.66 242.417 251.56 242.887 251.56H243.577C243.997 251.55 244.417 251.54 244.837 251.53C245.377 251.51 245.907 251.61 246.387 251.81C246.857 251.57 247.377 251.42 247.937 251.4L248.607 251.37C248.897 251.36 249.197 251.35 249.487 251.33C251.587 251.21 253.377 252.8 253.507 254.89C253.507 254.97 253.507 255.05 253.507 255.12C253.507 257.11 251.957 258.79 249.937 258.91C249.597 258.93 249.247 258.95 248.907 258.96L248.307 258.99C247.737 259.02 247.187 258.92 246.687 258.72C246.197 258.97 245.647 259.12 245.067 259.14C244.597 259.15 244.127 259.16 243.657 259.17H243.007C242.517 259.2 242.067 259.1 241.637 258.95C241.207 259.12 240.737 259.21 240.247 259.21L240.217 259.2Z" fill="white"/>
<path fill-rule="evenodd" clip-rule="evenodd" d="M24.8871 86.47C-12.2329 113.23 7.34706 157.8 24.8771 117.02C37.4371 87.78 43.2671 73.22 24.8871 86.47Z" fill="#002D66"/>
<path fill-rule="evenodd" clip-rule="evenodd" d="M51.7171 54.24C29.8371 57.58 26.8771 80.34 44.1571 67.01C56.5571 57.45 62.5571 52.6 51.7171 54.24Z" fill="#002D66"/>
<path d="M363.747 168.82C363.767 168.74 363.787 168.66 363.817 168.58C363.797 168.66 363.767 168.74 363.747 168.82ZM363.717 168.92C363.717 168.92 363.737 168.85 363.747 168.81C363.737 168.84 363.727 168.88 363.717 168.92ZM363.677 169.07C363.677 169.07 363.707 168.97 363.717 168.93C363.707 168.98 363.687 169.03 363.677 169.07ZM363.607 169.32C363.607 169.32 363.617 169.28 363.627 169.26C363.627 169.28 363.627 169.3 363.607 169.32ZM357.147 186.86C339.567 222.47 302.157 250.35 254.487 254.76C241.327 255.97 228.507 255.46 216.317 253.44C198.197 262.53 177.947 269.41 158.337 273.43C175.617 278.44 194.787 280.53 214.767 279.02C214.797 279.02 214.817 279.04 214.847 279.04C215.317 278.99 215.787 278.94 216.257 278.89C216.727 278.85 217.197 278.82 217.667 278.77C227.827 277.83 237.627 276.01 246.947 273.42C305.297 258.22 349.827 217.9 363.607 169.32C361.907 175.3 359.747 181.16 357.147 186.85V186.86Z" fill="#FFEC00"/>
<path d="M52.8071 223.05C53.2271 212.77 56.1671 201.61 61.6671 189.92C70.1671 171.84 84.0271 154.39 100.697 140.8C101.587 140.07 102.487 139.36 103.397 138.66C104.097 138.12 104.797 137.59 105.497 137.07C105.567 137.02 105.637 136.97 105.707 136.92C117.507 128.16 129.907 121.93 141.847 118.69C147.037 117.2 152.137 116.22 157.017 115.83C157.087 115.83 157.137 115.83 157.207 115.82C156.977 115.85 156.757 115.88 156.527 115.91C158.997 115.55 161.487 115.6 163.947 116.12C178.347 119.15 182.717 129.37 181.067 148.65C181.027 149.07 180.997 149.47 180.947 149.88V149.9C180.947 149.9 180.947 149.99 180.937 150.03C180.897 150.44 180.847 150.83 180.807 151.23C176.127 195.03 184.087 204.13 203.617 201.07C229.427 197.03 227.977 177.02 217.317 170.76C204.107 162.99 197.487 158.17 197.167 150.46C196.337 130.7 234.187 121.09 223.347 97.89C221.017 92.91 211.637 90.11 198.387 90.11C151.377 90.11 55.6171 125.3 52.7971 223.07L52.8071 223.05Z" fill="url(#paint0_linear_257_175)"/>
<path d="M157.037 115.82C139.037 117.26 118.077 126.64 100.707 140.8C84.0371 154.39 70.1671 171.84 61.6771 189.92C48.9471 217.01 49.8671 241.26 64.2871 258.21C77.0971 273.27 102.677 279.85 136.307 276.74C255.427 262.3 273.577 198.86 273.577 198.86C262.457 224.03 238.237 241 211.577 243.47C192.797 245.2 174.127 239.68 159.007 227.91C141.947 214.63 128.167 196.11 126.517 174.48C125.637 163 125.577 151.36 129.977 141.46C134.807 127.25 145.827 117.11 157.217 115.81C157.157 115.81 157.097 115.81 157.027 115.82H157.037Z" fill="url(#paint1_linear_257_175)"/>
<path d="M184.697 57.3C184.697 57.3 184.657 57.3 184.627 57.32C198.337 54.98 210.487 54.1 218.677 54.59C267.127 57.51 292.677 93.73 250.357 134.49C236.327 148.01 289.787 154.91 273.567 198.86C273.567 198.86 264.627 230.09 218.127 253.72C229.767 255.49 241.977 255.91 254.487 254.75C302.157 250.34 339.567 222.47 357.147 186.85C363.347 173.26 367.067 158.78 367.887 143.83C367.957 142.52 368.007 141.22 368.027 139.91C368.027 139.68 368.027 139.44 368.037 139.21C368.037 138.51 368.037 137.8 368.037 137.1C367.987 135.91 367.897 134.74 367.787 133.57C367.757 133.21 367.707 132.85 367.667 132.49C367.577 131.67 367.477 130.86 367.357 130.05C367.297 129.66 367.237 129.27 367.177 128.88C367.037 128.06 366.887 127.24 366.717 126.43C366.647 126.11 366.597 125.78 366.517 125.47C366.267 124.35 365.997 123.25 365.697 122.15C365.657 122.01 365.607 121.86 365.567 121.72C365.297 120.77 364.997 119.83 364.687 118.89C364.577 118.55 364.457 118.22 364.337 117.88C364.067 117.13 363.787 116.38 363.497 115.63C363.357 115.29 363.227 114.95 363.087 114.61C362.747 113.8 362.397 112.99 362.017 112.19C361.907 111.96 361.817 111.73 361.707 111.5C361.217 110.47 360.697 109.45 360.157 108.45C360.067 108.28 359.957 108.11 359.867 107.94C359.407 107.11 358.937 106.29 358.447 105.48C358.277 105.19 358.097 104.91 357.917 104.62C357.467 103.91 357.007 103.19 356.527 102.49C356.347 102.22 356.167 101.95 355.987 101.68C355.397 100.84 354.797 100 354.177 99.18C354.107 99.08 354.037 98.99 353.957 98.89C353.227 97.94 352.477 97 351.707 96.08C351.587 95.93 351.457 95.78 351.327 95.63C350.687 94.87 350.027 94.13 349.357 93.39C349.157 93.17 348.947 92.95 348.747 92.73C348.097 92.03 347.427 91.34 346.747 90.66C346.567 90.48 346.397 90.3 346.217 90.12C344.457 88.39 342.607 86.7 340.677 85.08C340.547 84.97 340.417 84.87 340.287 84.76C339.447 84.06 338.587 83.37 337.717 82.69C337.527 82.54 337.327 82.39 337.137 82.24C336.247 81.55 335.327 80.87 334.407 80.21C334.297 80.13 334.177 80.05 334.067 79.96C331.907 78.42 329.667 76.94 327.347 75.51C327.247 75.45 327.147 75.39 327.047 75.33C325.987 74.69 324.917 74.05 323.827 73.43C323.687 73.35 323.547 73.27 323.407 73.19C319.777 71.14 315.987 69.23 312.047 67.46C311.997 67.44 311.947 67.41 311.887 67.39C310.607 66.82 309.317 66.27 308.007 65.72C307.947 65.7 307.887 65.67 307.827 65.65C303.727 63.95 299.487 62.41 295.127 61.02C295.117 61.02 295.097 61.02 295.087 61.01C289.237 59.14 283.167 57.54 276.947 56.23C263.027 53.3 248.307 51.77 233.367 51.77C217.137 51.77 200.667 53.57 184.707 57.31L184.697 57.3Z" fill="url(#paint2_linear_257_175)"/>
<path d="M189.557 5.38C114.607 12.31 44.9071 59.6 40.0371 117.84C38.9471 130.91 49.1571 136.18 65.4071 121.64C100.917 89.86 136.817 70.61 170.897 60.79C175.687 59.36 180.287 58.21 184.697 57.3C267.987 37.77 365.367 71.1 368.047 137.1C368.047 136.72 368.047 136.35 368.047 135.98C368.047 135.64 368.047 135.31 368.027 134.97C368.007 133.96 367.967 132.95 367.917 131.93C367.897 131.58 367.887 131.23 367.867 130.89C367.787 129.57 367.697 128.24 367.577 126.91C364.517 93.85 347.547 64.83 321.767 43.36C319.927 41.82 318.037 40.33 316.107 38.88C311.287 35.24 306.187 31.85 300.857 28.73C298.727 27.48 296.557 26.28 294.347 25.11C293.247 24.53 292.137 23.96 291.007 23.4C284.277 20.05 277.217 17.1 269.897 14.59C267.457 13.75 264.987 12.97 262.487 12.23C245.487 7.21 227.197 4.5 208.187 4.5C202.037 4.5 195.817 4.78 189.537 5.36L189.557 5.38Z" fill="#002F6A"/>
<path fill-rule="evenodd" clip-rule="evenodd" d="M541.537 5.93001H556.627C559.607 5.93001 561.357 7.68001 561.357 10.67V124.05C561.357 127.03 559.607 128.79 556.627 128.79H541.537C538.557 128.79 536.797 127.03 536.797 124.05V10.66C536.797 7.68001 538.547 5.92001 541.537 5.92001V5.93001Z" fill="#F07C00"/>
<path fill-rule="evenodd" clip-rule="evenodd" d="M707.327 69.65V106.68C707.327 108.96 706.627 110.89 704.697 112.82C690.837 126.51 673.987 131.6 656.257 131.6C617.477 131.6 591.497 103.34 591.497 68.42C591.497 33.5 617.477 5.23999 658.017 5.23999C673.987 5.23999 687.857 8.74999 696.457 15.24C705.927 22.44 696.287 35.6 690.487 37.53C683.107 30.51 671.357 26.65 659.597 26.65C630.807 26.65 616.067 45.08 616.067 68.42C616.067 91.76 630.807 110.19 658.367 110.19C667.137 110.19 678.197 107.56 684.697 99.66V85.09C678.377 85.44 672.937 85.44 670.307 85.44C650.647 85.44 654.507 69.12 657.847 64.03C672.587 66.31 689.087 66.49 702.597 65.43C705.577 65.08 707.337 66.66 707.337 69.64L707.327 69.65Z" fill="#FFEC00"/>
<path fill-rule="evenodd" clip-rule="evenodd" d="M469.217 205.18C464.107 209.32 456.737 210.14 450.407 210.14C439.677 210.14 429.577 205.92 422.907 197.35C418.237 191.35 415.907 183.97 415.907 176.39C415.907 168.81 418.237 161.44 422.907 155.43C429.567 146.86 439.677 142.64 450.407 142.64C456.137 142.64 463.777 143.9 468.487 147.47C470.297 148.84 471.477 150.75 471.727 153.02C471.947 155.03 471.407 157.05 470.457 158.81C469.257 161.03 467.077 163.41 464.627 164.23C463.377 164.65 462.097 164.37 461.137 163.47C458.517 161.01 453.907 159.87 450.417 159.87C440.527 159.87 434.667 166.75 434.667 176.38C434.667 186.01 440.527 192.89 450.417 192.89C454.547 192.89 459.217 191.77 462.317 188.87C463.277 187.97 464.567 187.69 465.807 188.11C468.477 189 470.797 191.7 471.887 194.21C473.637 198.23 472.747 202.39 469.227 205.15L469.217 205.18ZM467.907 176.4C467.907 168.82 470.237 161.45 474.907 155.44C481.567 146.87 491.677 142.65 502.407 142.65C513.137 142.65 523.217 146.89 529.877 155.44C534.557 161.44 536.897 168.81 536.897 176.39C536.897 183.97 534.557 191.34 529.877 197.34C523.217 205.88 513.117 210.13 502.407 210.13C491.697 210.13 481.577 205.91 474.907 197.34C470.237 191.34 467.907 183.96 467.907 176.38V176.4ZM518.157 176.4C518.157 166.6 512.467 159.89 502.407 159.89C492.347 159.89 486.657 166.77 486.657 176.4C486.657 186.03 492.517 192.91 502.407 192.91C512.297 192.91 518.157 186.19 518.157 176.4ZM561.927 191.74H557.017V203.54C557.017 206.89 554.617 209.3 551.257 209.3H544.027C540.667 209.3 538.267 206.9 538.267 203.54V149.25C538.267 145.89 540.667 143.49 544.027 143.49H563.857C572.007 143.49 580.337 146.17 585.707 152.58C589.297 156.86 590.957 162.11 590.957 167.65C590.957 176.46 586.597 183.44 579.387 187.55C582.337 191.93 586.537 195.94 591.067 198.24C591.957 198.69 592.557 199.42 592.837 200.38C593.117 201.34 592.997 202.28 592.487 203.14C589.827 207.6 585.237 210.14 580.077 210.14C577.307 210.14 574.687 209.46 572.317 208.04C566.757 204.69 563.817 197.93 561.927 191.74ZM557.017 160.73V174.5H562.517C564.967 174.5 568.837 174.23 570.557 172.17C571.577 170.95 571.807 169.18 571.807 167.65C571.807 166.12 571.567 164.32 570.547 163.09C568.827 161.01 564.997 160.72 562.527 160.72H557.027L557.017 160.73ZM613.057 160.73V168.62H631.247C634.607 168.62 637.007 171.02 637.007 174.38V180.01C637.007 183.37 634.607 185.77 631.247 185.77H613.057V192.07H637.967C641.317 192.07 643.727 194.47 643.727 197.83V203.54C643.727 206.89 641.327 209.3 637.967 209.3H600.067C596.707 209.3 594.307 206.9 594.307 203.54V149.25C594.307 145.89 596.707 143.49 600.067 143.49H636.277C639.637 143.49 642.037 145.89 642.037 149.25V154.96C642.037 158.32 639.637 160.72 636.277 160.72H613.047L613.057 160.73ZM648.937 203.57C647.037 201.69 646.007 199.24 646.387 196.56C646.917 192.87 650.167 189.44 653.537 188.06C654.787 187.54 656.137 187.76 657.157 188.66C660.337 191.44 665.147 192.84 669.317 192.84C671.357 192.84 673.837 192.6 675.697 191.67C676.457 191.29 677.317 190.69 677.587 189.83C677.657 189.62 677.677 189.41 677.677 189.19C677.677 188.95 677.657 188.69 677.587 188.46C676.907 186.49 668.537 184.12 666.837 183.63C656.077 180.51 646.337 175.58 646.337 163.05C646.337 160.05 647.027 157.15 648.447 154.49C652.957 146.04 663.047 142.67 672.097 142.67C677.417 142.67 684.557 143.76 689.077 146.79C690.807 147.95 692.007 149.62 692.417 151.67C693.377 156.44 689.567 162.02 684.967 163.3C683.947 163.59 682.957 163.43 682.077 162.83C679.167 160.86 675.867 159.9 672.347 159.9C670.497 159.9 665.417 160.26 665.417 163.04C665.417 163.13 665.417 163.23 665.437 163.32C665.527 163.77 666.627 164.44 666.957 164.64C668.067 165.29 669.317 165.81 670.517 166.26C672.507 167.02 674.557 167.66 676.607 168.26C686.867 171.27 696.767 176.45 696.767 188.5C696.767 191.95 695.947 195.3 694.247 198.31C689.467 206.83 679.517 210.17 670.227 210.14C665.677 210.13 660.997 209.48 656.687 207.98C654.077 207.07 650.897 205.58 648.937 203.56V203.57Z" fill="white"/>
<path fill-rule="evenodd" clip-rule="evenodd" d="M419.397 176.4C419.397 159.68 431.837 146.15 450.407 146.15C458.387 146.15 463.937 148.42 466.377 150.27C470.917 153.72 466.287 160.02 463.527 160.95C460.837 158.43 455.877 156.41 450.417 156.41C438.227 156.41 431.167 165.23 431.167 176.41C431.167 187.59 438.227 196.41 450.417 196.41C457.227 196.41 462.007 193.97 464.707 191.45C467.477 192.38 472.017 198.6 467.057 202.46C464.367 204.64 459.747 206.66 450.417 206.66C431.847 206.66 419.407 193.13 419.407 176.41L419.397 176.4Z" fill="#E30016"/>
<path fill-rule="evenodd" clip-rule="evenodd" d="M521.647 176.4C521.647 165.06 514.757 156.4 502.407 156.4C490.057 156.4 483.157 165.22 483.157 176.4C483.157 187.58 490.217 196.4 502.407 196.4C514.597 196.4 521.647 187.74 521.647 176.4ZM471.397 176.4C471.397 159.68 483.837 146.15 502.407 146.15C520.977 146.15 533.417 159.68 533.417 176.4C533.417 193.12 520.897 206.65 502.407 206.65C483.917 206.65 471.397 193.12 471.397 176.4Z" fill="#F07C00"/>
<path fill-rule="evenodd" clip-rule="evenodd" d="M562.517 178C571.177 178 575.287 174.72 575.287 167.66C575.287 160.6 571.167 157.24 562.517 157.24H553.527V178H562.517ZM589.487 201.36C587.387 204.89 583.857 206.66 580.077 206.66C571.077 206.66 567.137 197.75 564.527 188.17C563.777 188.25 563.017 188.25 562.177 188.25H553.517V203.55C553.517 204.98 552.677 205.81 551.247 205.81H544.017C542.587 205.81 541.747 204.97 541.747 203.55V149.26C541.747 147.83 542.587 146.99 544.017 146.99H563.847C577.207 146.99 587.457 154.72 587.457 167.66C587.457 176.57 582.327 182.96 574.427 186.07C578.127 193.22 584.177 198.68 589.467 201.36H589.487Z" fill="#FFEC00"/>
<path fill-rule="evenodd" clip-rule="evenodd" d="M640.237 197.83V203.54C640.237 204.97 639.397 205.8 637.967 205.8H600.067C598.637 205.8 597.797 204.96 597.797 203.54V149.25C597.797 147.82 598.637 146.98 600.067 146.98H636.277C637.707 146.98 638.547 147.82 638.547 149.25V154.96C638.547 156.39 637.707 157.23 636.277 157.23H609.557V172.1H631.237C632.667 172.1 633.507 172.94 633.507 174.37V180C633.507 181.43 632.667 182.27 631.237 182.27H609.557V195.55H637.967C639.397 195.55 640.237 196.39 640.237 197.82V197.83Z" fill="#009035"/>
<path fill-rule="evenodd" clip-rule="evenodd" d="M654.867 191.28C658.227 194.22 663.607 196.32 669.317 196.32C677.137 196.32 681.167 193.22 681.167 189.18C681.167 185.4 678.477 183.38 667.807 180.27C654.697 176.49 649.827 171.44 649.827 163.04C649.827 152.87 659.497 146.15 672.097 146.15C679.237 146.15 684.617 148 687.137 149.68C691.507 152.62 687.637 158.93 684.027 159.93C680.667 157.66 676.717 156.4 672.347 156.4C665.797 156.4 661.927 159.01 661.927 163.04C661.927 166.07 664.197 168.25 675.627 171.61C687.147 174.97 693.277 179.84 693.277 188.5C693.277 199.25 683.867 206.65 670.257 206.65C660.167 206.56 653.527 203.29 651.437 201.1C647.317 197.07 652.027 192.44 654.887 191.27L654.867 191.28Z" fill="#009EE0"/>
<path fill-rule="evenodd" clip-rule="evenodd" d="M466.407 228.32V231.39C466.407 232.03 465.767 232.6 465.027 232.6H447.407V275.9C447.407 276.54 446.757 277.12 446.027 277.12H441.807C441.077 277.12 440.427 276.55 440.427 275.9V232.6H422.807C422.077 232.6 421.427 232.03 421.427 231.39V228.32C421.427 227.68 422.077 227.11 422.807 227.11H465.037C465.777 227.11 466.417 227.68 466.417 228.32H466.407Z" fill="white"/>
<path d="M446.027 279.89H441.807C439.557 279.89 437.657 278.07 437.657 275.91V235.38H422.807C420.557 235.38 418.657 233.56 418.657 231.4V228.33C418.657 226.17 420.557 224.35 422.807 224.35H465.037C467.287 224.35 469.187 226.17 469.187 228.33V231.4C469.187 233.56 467.287 235.38 465.037 235.38H450.187V275.91C450.187 278.07 448.287 279.89 446.037 279.89H446.027ZM443.197 274.35H444.647V229.87H443.197V274.35Z" fill="white"/>
<path fill-rule="evenodd" clip-rule="evenodd" d="M476.527 227.11H480.747C481.477 227.11 482.127 227.68 482.127 228.32V275.91C482.127 276.55 481.477 277.13 480.747 277.13H476.527C475.797 277.13 475.147 276.56 475.147 275.91V228.32C475.147 227.68 475.797 227.11 476.527 227.11Z" fill="white"/>
<path d="M480.747 279.89H476.527C474.277 279.89 472.377 278.07 472.377 275.91V228.32C472.377 226.16 474.277 224.34 476.527 224.34H480.747C482.997 224.34 484.897 226.16 484.897 228.32V275.91C484.897 278.07 482.997 279.89 480.747 279.89ZM477.917 274.35H479.367V229.87H477.917V274.35Z" fill="white"/>
<path fill-rule="evenodd" clip-rule="evenodd" d="M534.917 227.11H539.137C539.867 227.11 540.517 227.68 540.517 228.32V275.91C540.517 276.55 539.867 277.13 539.137 277.13H534.917C534.187 277.13 533.127 276.7 532.717 276.13L499.917 237.34V275.92C499.917 276.56 499.267 277.14 498.537 277.14H494.317C493.587 277.14 492.937 276.57 492.937 275.92V228.33C492.937 227.69 493.577 227.12 494.317 227.12H498.537C499.267 227.12 500.317 227.55 500.727 228.12L533.537 266.91V228.33C533.537 227.69 534.187 227.12 534.917 227.12V227.11Z" fill="white"/>
<path d="M539.137 279.89H534.917C533.557 279.89 531.637 279.25 530.557 277.84L502.687 244.88V275.91C502.687 278.07 500.787 279.89 498.537 279.89H494.317C492.067 279.89 490.167 278.07 490.167 275.91V228.32C490.167 226.16 492.067 224.34 494.317 224.34H498.537C499.947 224.34 501.867 225.04 502.897 226.39L530.767 259.35V228.32C530.767 226.16 532.667 224.34 534.917 224.34H539.137C541.387 224.34 543.287 226.16 543.287 228.32V275.91C543.287 278.07 541.387 279.89 539.137 279.89ZM534.807 274.3C534.867 274.33 534.937 274.35 534.977 274.36H536.217L498.637 229.92C498.577 229.9 498.517 229.87 498.467 229.87H497.237L534.807 274.3ZM536.307 229.87V274.35H537.757V229.87H536.307ZM495.707 274.35H497.157V229.86H495.707V274.35Z" fill="white"/>
<path fill-rule="evenodd" clip-rule="evenodd" d="M594.287 228.32V231.39C594.287 232.03 593.647 232.6 592.907 232.6H575.287V275.9C575.287 276.54 574.647 277.12 573.907 277.12H569.687C568.957 277.12 568.307 276.55 568.307 275.9V232.6H550.687C549.957 232.6 549.307 232.03 549.307 231.39V228.32C549.307 227.68 549.957 227.11 550.687 227.11H592.917C593.657 227.11 594.297 227.68 594.297 228.32H594.287Z" fill="white"/>
<path d="M573.907 279.89H569.687C567.437 279.89 565.537 278.07 565.537 275.91V235.38H550.687C548.437 235.38 546.537 233.56 546.537 231.4V228.33C546.537 226.17 548.437 224.35 550.687 224.35H592.917C595.167 224.35 597.067 226.17 597.067 228.33V231.4C597.067 233.56 595.167 235.38 592.917 235.38H578.067V275.91C578.067 278.07 576.167 279.89 573.917 279.89H573.907ZM571.067 274.35H572.517V229.87H571.067V274.35Z" fill="white"/>
<path fill-rule="evenodd" clip-rule="evenodd" d="M631.947 261.33C628.617 253.54 624.147 244.26 618.707 235.11C613.267 244.26 608.797 253.54 605.387 261.33H631.937H631.947ZM592.397 275.76C596.457 264.62 604.247 245.68 615.377 227.96C615.697 227.53 616.437 227.1 617.077 227.1H620.237C620.887 227.1 621.627 227.53 621.947 227.96C633.067 245.68 640.867 264.61 645.007 275.76C645.257 276.47 644.687 277.12 643.867 277.12H639.407C638.677 277.12 637.867 276.55 637.627 275.97C636.807 273.4 635.517 270.33 634.137 266.75H603.277C601.817 270.32 600.597 273.39 599.707 275.97C599.457 276.61 598.647 277.12 597.917 277.12H593.527C592.717 277.12 592.147 276.47 592.387 275.76H592.397Z" fill="white"/>
<path d="M643.877 279.89H639.417C637.627 279.89 635.757 278.67 635.087 277.05L635.007 276.82C634.457 275.09 633.667 273.09 632.757 270.78C632.597 270.37 632.427 269.96 632.267 269.53H605.157C603.867 272.73 602.997 274.99 602.337 276.89C601.657 278.66 599.817 279.89 597.937 279.89H593.547C592.237 279.89 591.017 279.28 590.287 278.26C589.577 277.27 589.397 276.04 589.797 274.88L589.817 274.82C593.487 264.74 601.397 245.06 613.057 226.5L613.187 226.31C614.067 225.14 615.647 224.35 617.097 224.35H620.257C621.717 224.35 623.297 225.14 624.177 226.31L624.307 226.5C635.167 243.8 642.977 262.32 647.617 274.8C648.037 276.03 647.867 277.26 647.157 278.25C646.427 279.28 645.197 279.89 643.877 279.89ZM640.007 274.35H641.527C636.957 262.37 629.697 245.61 619.877 229.87H618.797L621.067 233.69C627.117 243.86 631.697 253.74 634.467 260.23L636.117 264.08H636.057L636.697 265.75C637.097 266.78 637.487 267.78 637.867 268.72C638.687 270.8 639.417 272.64 639.987 274.34L640.007 274.35ZM595.867 274.35H597.347C598.107 272.22 599.147 269.56 600.717 265.71L601.377 264.09H601.157L602.857 260.21C607.137 250.45 611.667 241.53 616.327 233.69L618.607 229.87H617.447C607.047 246.52 599.737 264.06 595.867 274.35ZM609.657 258.56H627.707C625.447 253.52 622.407 247.24 618.697 240.64C615.597 246.15 612.567 252.15 609.647 258.56H609.657Z" fill="white"/>
<path d="M672.057 280.56C663.707 280.56 655.617 278.11 652.397 274.59C650.487 272.56 650.687 270.52 650.977 269.49C651.717 266.87 654.447 265.27 656.557 264.7L658.127 264.27L659.267 265.43C661.667 267.88 666.867 269.6 671.907 269.6C679.087 269.6 683.917 267.09 683.917 263.36C683.917 261.43 683.917 259.44 671.347 256.4C662.937 254.33 651.777 250.38 651.777 239.93C651.777 230.2 661.177 223.66 675.167 223.66C680.847 223.66 687.087 225.09 690.397 227.13C692.227 228.19 693.197 229.93 693.047 231.89C692.867 234.36 690.827 236.81 688.107 237.87L686.817 238.37L685.647 237.64C682.437 235.64 679.117 234.7 675.177 234.7C670.077 234.7 664.627 236.08 664.627 239.94C664.627 241.01 664.627 243.22 675.357 245.9C682.837 247.74 696.777 251.18 696.777 263.3C696.777 273.47 686.627 280.57 672.087 280.57L672.057 280.56ZM656.467 270.84C657.627 272.09 661.177 273.76 666.147 274.56C662.517 273.83 659.207 272.44 656.787 270.6C656.667 270.68 656.557 270.77 656.477 270.84H656.467ZM670.607 229.47C662.487 230.53 657.297 234.47 657.297 239.93C657.297 243.34 659.037 247.68 672.647 251.03C683.787 253.72 689.447 256.36 689.447 263.36C689.447 268.86 685.367 272.87 678.637 274.42C686.287 272.92 691.217 268.76 691.217 263.29C691.217 256.81 684.627 253.88 673.997 251.26C665.027 249.02 659.057 246.24 659.057 239.93C659.057 235.45 662.187 230.71 670.607 229.47ZM678.827 229.41C681.747 229.81 684.477 230.69 687.067 232.08C687.177 231.97 687.277 231.86 687.347 231.76C685.727 230.8 682.527 229.82 678.827 229.4V229.41Z" fill="white"/>
<path fill-rule="evenodd" clip-rule="evenodd" d="M657.287 267.37C660.287 270.44 666.217 272.37 671.897 272.37C681.067 272.37 686.677 268.72 686.677 263.36C686.677 258.86 683.837 256.58 671.987 253.72C659.797 250.72 654.527 246.43 654.527 239.93C654.527 231.79 663.047 226.42 675.147 226.42C680.907 226.42 686.437 227.92 688.947 229.5C691.707 231.07 689.677 234.28 687.077 235.29C683.417 233 679.527 231.93 675.137 231.93C666.857 231.93 661.817 235 661.817 239.93C661.817 243.64 664.907 246.14 674.647 248.58C684.797 251.08 693.977 254.44 693.977 263.29C693.977 272.14 684.967 277.79 672.047 277.79C663.847 277.79 656.787 275.29 654.427 272.72C652.077 270.22 654.917 268.01 657.267 267.37H657.287Z" fill="white"/>
<defs>
<linearGradient id="paint0_linear_257_175" x1="139.057" y1="90.09" x2="139.057" y2="223.05" gradientUnits="userSpaceOnUse">
<stop stop-color="#D20819"/>
<stop offset="0.4" stop-color="#C50D1B"/>
<stop offset="1" stop-color="#B7141E"/>
</linearGradient>
<linearGradient id="paint1_linear_257_175" x1="163.157" y1="277.49" x2="163.157" y2="115.81" gradientUnits="userSpaceOnUse">
<stop stop-color="#FBB200"/>
<stop offset="0.64" stop-color="#F38D00"/>
<stop offset="1" stop-color="#F17F00"/>
</linearGradient>
<linearGradient id="paint2_linear_257_175" x1="276.337" y1="255.4" x2="276.337" y2="51.76" gradientUnits="userSpaceOnUse">
<stop stop-color="#B1C900"/>
<stop offset="0.17" stop-color="#71B845"/>
<stop offset="0.34" stop-color="#37AA84"/>
<stop offset="0.46" stop-color="#14A1AB"/>
<stop offset="0.53" stop-color="#079EBA"/>
<stop offset="0.63" stop-color="#0386B4"/>
<stop offset="0.73" stop-color="#0176B0"/>
<stop offset="0.85" stop-color="#006CAE"/>
<stop offset="1" stop-color="#0069AE"/>
</linearGradient>
</defs>
</svg>
